<svg width="1729" height="1118" viewBox="0 0 1729 1118" fill="none" xmlns="http://www.w3.org/2000/svg">
<path opacity="0.0144928" d="M1745.62 1635.35C1754.53 1640.08 1765.46 1638.45 1772.6 1631.37L1772.94 1631.02L1999.27 1396.94C2003.48 1392.58 2005.8 1386.74 2005.73 1380.68L2005.73 1380.68L2000.11 914.611C2000.06 909.993 1998.61 905.503 1995.97 901.722L1995.71 901.358L1755.57 571.251C1750.48 564.262 1741.91 560.713 1733.37 562.065L1452.92 606.484C1444.65 607.794 1437.77 613.49 1434.91 621.317L1434.65 622.08L1308.26 1010.24C1306.83 1014.63 1306.76 1019.35 1308.05 1023.78L1308.17 1024.2L1446.85 1469.19C1448.6 1474.8 1452.42 1479.52 1457.53 1482.39L1458.03 1482.67L1745.62 1635.35Z" stroke="url(#paint0_linear_48_207)" stroke-width="4"/>
<path opacity="0.0289855" d="M1694.46 1633.86C1703.1 1639.02 1714.07 1637.97 1721.56 1631.3L1721.91 1630.98L1958.83 1411.03C1963.14 1407.03 1965.75 1401.53 1966.13 1395.68L1966.16 1395.11L1984.99 933.679C1985.18 929.051 1983.97 924.476 1981.51 920.553L1981.27 920.176L1760.19 581.199C1755.48 573.968 1747.11 569.987 1738.52 570.889L1457.81 600.393C1449.49 601.267 1442.33 606.582 1439.06 614.235L1438.76 614.983L1292.98 992.518C1291.32 996.839 1290.99 1001.56 1292.05 1006.06L1292.16 1006.5L1406.51 1453.93C1407.97 1459.63 1411.55 1464.55 1416.51 1467.68L1416.99 1467.98L1694.46 1633.86Z" stroke="url(#paint1_linear_48_207)" stroke-width="4"/>
<path opacity="0.0434783" d="M1643.7 1630.82C1652.05 1636.4 1663.02 1635.92 1670.84 1629.68L1671.21 1629.38L1917.85 1424.03C1922.38 1420.26 1925.28 1414.9 1925.97 1409.07L1926.04 1408.5L1968.81 952.974C1969.25 948.349 1968.27 943.703 1966.01 939.648L1965.79 939.258L1764.04 592.491C1759.71 585.039 1751.57 580.638 1742.96 581.089L1462.77 595.773C1454.43 596.21 1447.01 601.13 1443.34 608.588L1443 609.316L1278.6 975.273C1276.69 979.511 1276.12 984.223 1276.94 988.788L1277.03 989.229L1367.18 1437.79C1368.35 1443.57 1371.67 1448.67 1376.48 1452.05L1376.95 1452.38L1643.7 1630.82Z" stroke="url(#paint2_linear_48_207)" stroke-width="4"/>
<path opacity="0.057971" d="M1593.42 1626.27C1601.45 1632.24 1612.4 1632.34 1620.52 1626.55L1620.9 1626.27L1876.4 1435.92C1881.13 1432.4 1884.32 1427.2 1885.33 1421.4L1885.42 1420.83L1951.57 972.439C1952.25 967.829 1951.52 963.124 1949.46 958.946L1949.26 958.544L1767.05 605.073C1763.1 597.42 1755.21 592.611 1746.6 592.611L1467.72 592.611C1459.38 592.611 1451.72 597.125 1447.66 604.364L1447.28 605.073L1265.06 958.544C1262.93 962.687 1262.1 967.377 1262.69 971.993L1262.75 972.439L1328.91 1420.83C1329.77 1426.67 1332.84 1431.94 1337.47 1435.58L1337.92 1435.92L1593.42 1626.27Z" stroke="url(#paint3_linear_48_207)" stroke-width="4"/>
<path opacity="0.0724638" d="M1543.7 1620.24C1551.39 1626.6 1562.29 1627.26 1570.68 1621.93L1571.08 1621.67L1834.54 1446.69C1839.46 1443.42 1842.93 1438.39 1844.24 1432.65L1844.36 1432.09L1933.27 992.016C1934.2 987.434 1933.7 982.681 1931.86 978.391L1931.68 977.977L1769.15 618.887C1765.6 611.054 1757.98 605.853 1749.4 605.403L1472.58 590.895C1464.26 590.459 1456.38 594.554 1451.95 601.556L1451.53 602.242L1252.35 942.376C1249.99 946.41 1248.92 951.065 1249.27 955.72L1249.3 956.171L1291.73 1403.13C1292.28 1409.01 1295.08 1414.44 1299.53 1418.31L1299.97 1418.68L1543.7 1620.24Z" stroke="url(#paint4_linear_48_207)" stroke-width="4"/>
<path opacity="0.0869565" d="M1494.6 1612.78C1501.94 1619.51 1512.75 1620.73 1521.4 1615.88L1521.81 1615.64L1792.33 1456.33C1797.43 1453.33 1801.17 1448.48 1802.78 1442.81L1802.93 1442.25L1913.91 1011.64C1915.08 1007.1 1914.83 1002.32 1913.2 997.923L1913.04 997.5L1770.28 633.872C1767.14 625.88 1759.81 620.3 1751.28 619.403L1477.28 590.604C1469 589.735 1460.93 593.4 1456.13 600.144L1455.68 600.806L1240.43 926.806C1237.85 930.72 1236.52 935.327 1236.63 940.009L1236.65 940.462L1255.67 1384.73C1255.92 1390.64 1258.44 1396.22 1262.69 1400.32L1263.11 1400.71L1494.6 1612.78Z" stroke="url(#paint5_linear_48_207)" stroke-width="4"/>
<path opacity="0.101449" d="M1446.21 1603.95C1453.17 1611.01 1463.87 1612.8 1472.74 1608.43L1473.17 1608.22L1749.84 1464.83C1755.1 1462.11 1759.1 1457.46 1761.01 1451.86L1761.19 1451.32L1893.48 1031.27C1894.9 1026.78 1894.9 1021.97 1893.49 1017.49L1893.35 1017.05L1770.39 649.963C1767.67 641.833 1760.65 635.893 1752.18 634.551L1481.73 591.716C1473.52 590.416 1465.28 593.642 1460.13 600.11L1459.64 600.745L1229.26 911.871C1226.46 915.653 1224.89 920.199 1224.76 924.895L1224.75 925.349L1220.76 1365.72C1220.7 1371.65 1222.94 1377.36 1226.98 1381.67L1227.38 1382.08L1446.21 1603.95Z" stroke="url(#paint6_linear_48_207)" stroke-width="4"/>
<path opacity="0.115942" d="M1398.59 1593.78C1405.17 1601.17 1415.72 1603.51 1424.79 1599.64L1425.22 1599.45L1707.12 1472.19C1712.53 1469.75 1716.78 1465.31 1718.99 1459.82L1719.2 1459.28L1872.01 1050.83C1873.67 1046.4 1873.92 1041.58 1872.74 1037.02L1872.62 1036.58L1769.43 667.095C1767.12 658.849 1760.43 652.564 1752.06 650.784L1485.86 594.203C1477.75 592.479 1469.36 595.258 1463.88 601.43L1463.36 602.038L1218.8 897.607C1215.79 901.244 1213.98 905.716 1213.6 910.414L1213.57 910.869L1187.03 1346.17C1186.67 1352.09 1188.61 1357.92 1192.44 1362.44L1192.82 1362.87L1398.59 1593.78Z" stroke="url(#paint7_linear_48_207)" stroke-width="4"/>
<path opacity="0.130435" d="M1351.8 1582.35C1357.98 1590.04 1368.37 1592.91 1377.6 1589.54L1378.04 1589.38L1664.25 1478.4C1669.79 1476.25 1674.28 1472.04 1676.78 1466.66L1677.02 1466.14L1849.5 1070.26C1851.39 1065.92 1851.89 1061.11 1850.95 1056.47L1850.85 1056.02L1767.34 685.195C1765.46 676.855 1759.11 670.245 1750.85 668.032L1489.61 598.033C1481.61 595.89 1473.1 598.216 1467.31 604.076L1466.75 604.654L1209.01 884.044C1205.8 887.525 1203.74 891.91 1203.12 896.598L1203.06 897.053L1154.5 1326.13C1153.83 1332.04 1155.48 1337.97 1159.08 1342.68L1159.43 1343.13L1351.8 1582.35Z" stroke="url(#paint8_linear_48_207)" stroke-width="4"/>
<path opacity="0.144928" d="M1305.92 1569.7C1311.69 1577.67 1321.87 1581.07 1331.24 1578.21L1331.69 1578.07L1621.27 1483.47C1626.93 1481.62 1631.65 1477.65 1634.44 1472.4L1634.7 1471.89L1825.96 1089.53C1828.09 1085.28 1828.84 1080.48 1828.13 1075.78L1828.06 1075.33L1764.08 704.196C1762.63 695.784 1756.64 688.866 1748.52 686.229L1492.91 603.174C1485.04 600.618 1476.43 602.486 1470.34 608.018L1469.76 608.565L1199.85 871.214C1196.45 874.529 1194.15 878.814 1193.28 883.479L1193.2 883.932L1123.19 1305.69C1122.21 1311.56 1123.55 1317.58 1126.91 1322.48L1127.25 1322.95L1305.92 1569.7Z" stroke="url(#paint9_linear_48_207)" stroke-width="4"/>
<path opacity="0.15942" d="M1260.99 1555.9C1266.33 1564.12 1276.29 1568.04 1285.77 1565.7L1286.23 1565.59L1578.27 1487.4C1584.03 1485.86 1588.96 1482.14 1592.02 1477.04L1592.32 1476.54L1801.41 1108.56C1803.77 1104.41 1804.78 1099.64 1804.3 1094.9L1804.25 1094.44L1759.62 724.022C1758.6 715.561 1752.98 708.356 1745.03 705.302L1495.68 609.585C1487.97 606.626 1479.29 608.032 1472.91 613.219L1472.31 613.733L1191.27 859.144C1187.68 862.281 1185.16 866.454 1184.04 871.083L1183.94 871.532L1093.1 1284.91C1091.82 1290.74 1092.86 1296.82 1095.97 1301.89L1096.28 1302.38L1260.99 1555.9Z" stroke="url(#paint10_linear_48_207)" stroke-width="4"/>
<path opacity="0.173913" d="M1217.09 1541.01C1221.99 1549.47 1231.69 1553.88 1241.26 1552.07L1241.72 1551.98L1535.3 1490.2C1541.14 1488.97 1546.27 1485.52 1549.61 1480.58L1549.93 1480.1L1775.89 1127.31C1778.47 1123.28 1779.73 1118.55 1779.49 1113.78L1779.47 1113.31L1753.93 744.603C1753.34 736.114 1748.11 728.642 1740.34 725.181L1497.87 617.229C1490.34 613.876 1481.61 614.817 1474.98 619.646L1474.35 620.126L1183.25 847.861C1179.48 850.81 1176.73 854.858 1175.37 859.439L1175.25 859.884L1064.27 1263.87C1062.69 1269.63 1063.41 1275.78 1066.27 1281L1066.55 1281.51L1217.09 1541.01Z" stroke="url(#paint11_linear_48_207)" stroke-width="4"/>
<path opacity="0.188406" d="M1174.23 1525.1C1178.69 1533.77 1188.11 1538.67 1197.73 1537.38L1198.19 1537.31L1492.4 1491.89C1498.31 1490.98 1503.63 1487.8 1507.23 1483.04L1507.57 1482.58L1749.39 1145.72C1752.19 1141.82 1753.69 1137.14 1753.7 1132.35L1753.7 1131.88L1746.95 765.858C1746.8 757.362 1741.97 749.645 1734.4 745.788L1499.41 626.058C1492.08 622.321 1483.33 622.796 1476.46 627.254L1475.8 627.697L1175.71 837.384C1171.78 840.135 1168.8 844.046 1167.2 848.566L1167.05 849.005L1036.67 1242.64C1034.78 1248.32 1035.19 1254.5 1037.79 1259.87L1038.05 1260.39L1174.23 1525.1Z" stroke="url(#paint12_linear_48_207)" stroke-width="4"/>
<path opacity="0.202899" d="M1132.48 1508.24C1136.48 1517.09 1145.6 1522.46 1155.25 1521.69L1155.71 1521.65L1449.64 1492.48C1455.6 1491.89 1461.09 1489 1464.95 1484.43L1465.32 1483.98L1721.94 1163.74C1724.95 1159.98 1726.71 1155.37 1726.96 1150.57L1726.98 1150.1L1738.68 787.707C1738.95 779.229 1734.54 771.288 1727.19 767.047L1500.25 636.021C1493.13 631.912 1484.38 631.922 1477.29 635.996L1476.61 636.402L1168.62 827.731C1164.53 830.274 1161.34 834.037 1159.5 838.484L1159.33 838.917L1010.31 1221.28C1008.13 1226.86 1008.22 1233.07 1010.55 1238.58L1010.78 1239.11L1132.48 1508.24Z" stroke="url(#paint13_linear_48_207)" stroke-width="4"/>
<path opacity="0.217391" d="M1091.88 1490.5C1095.42 1499.51 1104.21 1505.32 1113.86 1505.08L1114.32 1505.07L1407.08 1491.99C1413.08 1491.72 1418.73 1489.12 1422.83 1484.76L1423.22 1484.33L1693.58 1181.33C1696.8 1177.72 1698.8 1173.19 1699.3 1168.39L1699.34 1167.92L1729.09 810.077C1729.79 801.637 1725.8 793.495 1718.69 788.882L1500.33 647.073C1493.45 642.605 1484.73 642.149 1477.44 645.829L1476.74 646.198L1161.93 818.923C1157.69 821.25 1154.29 824.852 1152.22 829.213L1152.02 829.638L985.185 1199.87C982.719 1205.34 982.494 1211.55 984.542 1217.18L984.747 1217.72L1091.88 1490.5Z" stroke="url(#paint14_linear_48_207)" stroke-width="4"/>
<path opacity="0.231884" d="M1052.46 1471.95C1055.53 1481.09 1063.98 1487.34 1073.59 1487.62L1074.05 1487.63L1364.78 1490.44C1370.8 1490.5 1376.58 1488.2 1380.92 1484.05L1381.33 1483.64L1664.34 1198.43C1667.76 1194.99 1669.99 1190.55 1670.74 1185.76L1670.8 1185.29L1718.16 832.887C1719.29 824.508 1715.72 816.187 1708.88 811.217L1499.6 659.16C1492.97 654.346 1484.3 653.43 1476.84 656.705L1476.12 657.034L1155.59 810.973C1151.22 813.075 1147.62 816.506 1145.32 820.77L1145.1 821.184L961.3 1178.47C958.549 1183.82 958.005 1190.03 959.77 1195.76L959.948 1196.31L1052.46 1471.95Z" stroke="url(#paint15_linear_48_207)" stroke-width="4"/>
<path opacity="0.246377" d="M1014.27 1452.66C1016.86 1461.92 1024.94 1468.57 1034.48 1469.37L1034.94 1469.4L1322.79 1487.86C1328.8 1488.24 1334.71 1486.25 1339.27 1482.33L1339.7 1481.94L1634.24 1215.01C1637.85 1211.73 1640.32 1207.4 1641.31 1202.64L1641.4 1202.18L1705.88 856.059C1707.43 847.762 1704.31 839.284 1697.75 833.973L1498.01 672.225C1491.65 667.08 1483.06 665.706 1475.44 668.568L1474.71 668.859L1149.56 803.892C1145.06 805.761 1141.28 809.009 1138.74 813.164L1138.5 813.568L938.635 1157.17C935.606 1162.37 934.745 1168.55 936.221 1174.38L936.371 1174.94L1014.27 1452.66Z" stroke="url(#paint16_linear_48_207)" stroke-width="4"/>
<path opacity="0.26087" d="M977.313 1432.72C979.433 1442.06 987.116 1449.09 996.575 1450.41L997.027 1450.47L1281.15 1484.26C1287.15 1484.97 1293.17 1483.3 1297.93 1479.62L1298.39 1479.26L1603.32 1231.01C1607.12 1227.92 1609.82 1223.71 1611.06 1218.98L1611.17 1218.52L1692.25 879.514C1694.21 871.319 1691.54 862.71 1685.27 857.072L1495.52 686.213C1489.45 680.752 1480.96 678.926 1473.21 681.368L1472.47 681.618L1143.79 797.691C1139.18 799.32 1135.21 802.375 1132.45 806.408L1132.19 806.802L917.178 1136.01C913.878 1141.07 912.7 1147.21 913.883 1153.11L914.005 1153.68L977.313 1432.72Z" stroke="url(#paint17_linear_48_207)" stroke-width="4"/>
<path opacity="0.275362" d="M941.628 1412.19C943.27 1421.59 950.546 1428.99 959.886 1430.81L960.332 1430.89L1239.93 1479.69C1245.88 1480.73 1252 1479.38 1256.96 1475.95L1257.44 1475.61L1571.63 1246.4C1575.6 1243.51 1578.53 1239.42 1580.01 1234.75L1580.15 1234.29L1677.26 903.172C1679.63 895.102 1677.4 886.383 1671.46 880.436L1492.08 701.064C1486.32 695.303 1477.96 693.033 1470.11 695.049L1469.35 695.257L1138.23 792.375C1133.51 793.757 1129.37 796.61 1126.4 800.51L1126.12 800.89L896.909 1115.08C893.346 1119.97 891.854 1126.05 892.74 1132.02L892.833 1132.59L941.628 1412.19Z" stroke="url(#paint18_linear_48_207)" stroke-width="4"/>
<path opacity="0.289855" d="M907.233 1391.16C908.395 1400.6 915.245 1408.33 924.44 1410.65L924.88 1410.76L1199.16 1474.17C1205.06 1475.54 1211.26 1474.52 1216.4 1471.35L1216.89 1471.04L1539.2 1261.15C1543.33 1258.46 1546.48 1254.51 1548.2 1249.9L1548.36 1249.45L1660.92 926.96C1663.68 919.034 1661.91 910.23 1656.29 903.991L1487.68 716.721C1482.23 710.677 1474.02 707.971 1466.08 709.556L1465.32 709.722L1132.82 787.953C1128.02 789.082 1123.72 791.722 1120.54 795.477L1120.23 795.844L877.807 1094.44C873.99 1099.14 872.185 1105.15 872.77 1111.17L872.835 1111.75L907.233 1391.16Z" stroke="url(#paint19_linear_48_207)" stroke-width="4"/>
<path opacity="0.304348" d="M874.141 1369.69C874.825 1379.15 881.234 1387.19 890.256 1390L890.688 1390.13L1158.9 1467.74C1164.73 1469.42 1170.98 1468.74 1176.29 1465.84L1176.8 1465.56L1506.06 1275.2C1510.35 1272.73 1513.71 1268.94 1515.67 1264.4L1515.86 1263.96L1643.22 950.792C1646.38 943.03 1645.06 934.165 1639.79 927.653L1482.25 733.113C1477.15 726.804 1469.11 723.671 1461.11 724.822L1460.33 724.946L1127.53 784.417C1122.66 785.288 1118.2 787.706 1114.82 791.307L1114.49 791.659L859.845 1074.15C855.783 1078.65 853.671 1084.58 853.954 1090.62L853.989 1091.21L874.141 1369.69Z" stroke="url(#paint20_linear_48_207)" stroke-width="4"/>
<path opacity="0.318841" d="M842.36 1347.88C842.568 1357.32 848.521 1365.65 857.345 1368.93L857.768 1369.08L1119.18 1460.43C1124.92 1462.43 1131.21 1462.08 1136.68 1459.47L1137.21 1459.21L1472.27 1288.54C1476.7 1286.28 1480.27 1282.66 1482.47 1278.21L1482.67 1277.77L1624.18 974.595C1627.72 967.017 1626.87 958.114 1621.95 951.348L1475.79 750.182C1471.03 743.628 1463.19 740.077 1455.15 740.791L1454.38 740.873L1122.31 781.771C1117.37 782.379 1112.78 784.567 1109.2 788.001L1108.85 788.338L842.994 1054.26C838.697 1058.56 836.281 1064.38 836.26 1070.44L836.265 1071.03L842.36 1347.88Z" stroke="url(#paint21_linear_48_207)" stroke-width="4"/>
<path opacity="0.333333" d="M811.899 1325.78C811.634 1335.19 817.119 1343.79 825.718 1347.52L826.131 1347.7L1080.05 1452.28C1085.68 1454.6 1092 1454.59 1097.61 1452.27L1098.15 1452.04L1437.87 1301.12C1442.43 1299.1 1446.2 1295.65 1448.62 1291.29L1448.85 1290.87L1603.82 998.294C1607.73 990.918 1607.33 982.004 1602.79 975.003L1468.27 767.864C1463.86 761.081 1456.24 757.126 1448.19 757.403L1447.41 757.444L1117.1 780.012C1112.12 780.352 1107.39 782.301 1103.62 785.559L1103.26 785.878L827.223 1034.85C822.701 1038.92 819.988 1044.62 819.661 1050.69L819.637 1051.28L811.899 1325.78Z" stroke="url(#paint22_linear_48_207)" stroke-width="4"/>
<path opacity="0.347826" d="M782.756 1303.5C782.023 1312.84 787.029 1321.67 795.38 1325.86L795.78 1326.05L1041.55 1443.34C1047.05 1445.97 1053.37 1446.3 1059.11 1444.27L1059.66 1444.07L1402.9 1312.93C1407.58 1311.14 1411.54 1307.88 1414.19 1303.63L1414.45 1303.22L1582.15 1021.82C1586.42 1014.66 1586.48 1005.76 1582.31 998.542L1459.66 786.092C1455.62 779.102 1448.23 774.756 1440.2 774.596L1439.42 774.593L1111.86 779.131C1106.85 779.201 1102.01 780.904 1098.06 783.976L1097.68 784.277L812.495 1015.96C807.76 1019.8 804.753 1025.37 804.121 1031.42L804.068 1032.01L782.756 1303.5Z" stroke="url(#paint23_linear_48_207)" stroke-width="4"/>
<path opacity="0.362319" d="M754.93 1281.08C753.734 1290.34 758.251 1299.38 766.329 1304L766.717 1304.21L1003.71 1433.64C1009.07 1436.57 1015.37 1437.24 1021.22 1435.52L1021.79 1435.34L1367.4 1323.93C1372.19 1322.39 1376.34 1319.32 1379.22 1315.2L1379.49 1314.79L1559.2 1045.09C1563.81 1038.17 1564.33 1029.3 1560.55 1021.89L1449.94 804.799C1446.28 797.622 1439.15 792.899 1431.15 792.304L1430.38 792.26L1106.55 779.12C1101.52 778.916 1096.57 780.367 1092.45 783.243L1092.05 783.526L798.771 997.651C793.834 1001.26 790.542 1006.67 789.606 1012.7L789.523 1013.28L754.93 1281.08Z" stroke="url(#paint24_linear_48_207)" stroke-width="4"/>
<path opacity="0.376812" d="M728.412 1258.62C726.762 1267.77 730.78 1276.99 738.563 1282.02L738.937 1282.26L966.557 1423.22C971.763 1426.45 978.033 1427.46 983.976 1426.05L984.55 1425.9L1331.44 1334.1C1336.33 1332.81 1340.65 1329.95 1343.74 1325.96L1344.03 1325.57L1534.99 1068.04C1539.93 1061.37 1540.9 1052.56 1537.53 1044.98L1439.1 823.921C1435.83 816.578 1428.98 811.493 1421.04 810.466L1420.27 810.38L1101.12 779.968C1096.08 779.488 1091.04 780.68 1086.76 783.351L1086.35 783.613L786.01 979.977C780.885 983.328 777.314 988.58 776.075 994.561L775.962 995.143L728.412 1258.62Z" stroke="url(#paint25_linear_48_207)" stroke-width="4"/>
<path opacity="0.391304" d="M703.192 1236.19C701.094 1245.2 704.608 1254.58 712.075 1260.01L712.433 1260.26L930.133 1412.14C935.166 1415.65 941.385 1417.01 947.407 1415.91L947.989 1415.8L1295.05 1343.43C1300.02 1342.39 1304.51 1339.74 1307.81 1335.9L1308.12 1335.52L1509.55 1090.6C1514.81 1084.21 1516.23 1075.48 1513.26 1067.75L1427.14 843.392C1424.27 835.904 1417.71 830.472 1409.86 829.019L1409.09 828.891L1095.52 781.662C1090.5 780.906 1085.37 781.832 1080.94 784.289L1080.51 784.532L774.17 962.985C768.868 966.074 765.027 971.148 763.487 977.071L763.345 977.647L763.346 977.648L703.192 1236.19Z" stroke="url(#paint26_linear_48_207)" stroke-width="4"/>
<path opacity="0.405797" d="M679.252 1213.85C676.717 1222.72 679.721 1232.22 686.851 1238.02L687.194 1238.29L894.463 1400.44C899.305 1404.23 905.455 1405.92 911.537 1405.14L912.125 1405.06L1258.3 1351.89C1263.34 1351.12 1267.97 1348.69 1271.48 1345L1271.81 1344.64L1482.93 1112.71C1488.49 1106.6 1490.35 1097.98 1487.79 1090.12L1414.04 863.145C1411.57 855.533 1405.33 849.773 1397.58 847.899L1396.83 847.73L1089.71 784.186C1084.72 783.153 1079.53 783.809 1074.95 786.044L1074.51 786.265L763.203 946.724C757.738 949.54 753.636 954.423 751.798 960.272L751.628 960.842L679.252 1213.85Z" stroke="url(#paint27_linear_48_207)" stroke-width="4"/>
<path opacity="0.42029" d="M656.574 1191.69C653.612 1200.38 656.102 1209.98 662.876 1216.13L663.202 1216.42L859.568 1388.17C864.205 1392.22 870.268 1394.24 876.395 1393.79L876.988 1393.74L1221.21 1359.47C1226.31 1358.96 1231.09 1356.77 1234.79 1353.25L1235.15 1352.9L1455.14 1134.3C1460.99 1128.49 1463.28 1120 1461.15 1112.03L1399.81 883.114C1397.74 875.401 1391.83 869.33 1384.22 867.042L1383.48 866.832L1083.65 787.521C1078.7 786.211 1073.46 786.592 1068.75 788.597L1068.3 788.796L753.059 931.232C747.446 933.769 743.092 938.447 740.96 944.209L740.76 944.77L656.574 1191.69Z" stroke="url(#paint28_linear_48_207)" stroke-width="4"/>
<path opacity="0.434783" d="M635.133 1169.76C631.755 1178.25 633.729 1187.92 640.129 1194.41L640.438 1194.72L825.472 1375.36C829.888 1379.67 835.846 1382.02 842.001 1381.9L842.597 1381.88L1183.86 1366.16C1189 1365.93 1193.91 1363.97 1197.8 1360.62L1198.17 1360.29L1426.25 1155.32C1432.37 1149.82 1435.08 1141.47 1433.37 1133.43L1384.44 903.235C1382.79 895.442 1377.22 889.08 1369.76 886.385L1369.03 886.136L1077.3 791.648C1072.41 790.062 1067.13 790.166 1062.3 791.933L1061.84 792.109L743.689 916.554C737.941 918.803 733.346 923.263 730.923 928.922L730.695 929.474L635.133 1169.76Z" stroke="url(#paint29_linear_48_207)" stroke-width="4"/>
<path opacity="0.449275" d="M614.901 1148.14C611.121 1156.42 612.58 1166.13 618.588 1172.93L618.877 1173.25L792.194 1362.08C796.377 1366.64 802.211 1369.31 808.376 1369.51L808.973 1369.53L1146.28 1371.95C1151.45 1371.99 1156.48 1370.29 1160.56 1367.12L1160.95 1366.81L1396.29 1175.7C1402.66 1170.52 1405.79 1162.35 1404.5 1154.24L1367.95 923.442C1366.7 915.59 1361.5 908.957 1354.21 905.867L1353.5 905.578L1070.63 796.542C1065.8 794.683 1060.5 794.505 1055.56 796.028L1055.09 796.181L735.039 902.724C729.171 904.678 724.344 908.909 721.637 914.451L721.383 914.992L614.901 1148.14Z" stroke="url(#paint30_linear_48_207)" stroke-width="4"/>
<path opacity="0.463768" d="M595.836 1126.88C591.667 1134.93 592.61 1144.65 598.212 1151.73L598.483 1152.07L759.738 1348.36C763.672 1353.15 769.366 1356.14 775.523 1356.68L776.121 1356.72L1108.52 1376.83C1113.71 1377.15 1118.84 1375.7 1123.09 1372.73L1123.5 1372.43L1365.29 1195.38C1371.89 1190.54 1375.43 1182.56 1374.57 1174.42L1350.32 943.666C1349.49 935.779 1344.66 928.895 1337.57 925.42L1336.88 925.095L1063.57 802.178C1058.83 800.047 1053.51 799.585 1048.49 800.858L1048 800.987L727.043 889.771C721.07 891.424 716.025 895.414 713.038 900.825L712.755 901.354L595.836 1126.88Z" stroke="url(#paint31_linear_48_207)" stroke-width="4"/>
<path opacity="0.478261" d="M577.927 1106.07C573.384 1113.86 573.814 1123.57 578.996 1130.91L579.247 1131.26L728.142 1334.27C731.815 1339.28 737.35 1342.58 743.483 1343.45L744.079 1343.52L1070.66 1380.81C1075.85 1381.41 1081.08 1380.22 1085.49 1377.45L1085.91 1377.18L1333.33 1214.32C1340.15 1209.83 1344.08 1202.06 1343.65 1193.91L1331.6 963.859C1331.18 955.959 1326.74 948.844 1319.87 944.996L1319.2 944.634L1056.11 808.538C1051.48 806.139 1046.17 805.392 1041.06 806.409L1040.56 806.513L719.668 877.739C713.605 879.085 708.353 882.822 705.094 888.089L704.786 888.603L577.927 1106.07Z" stroke="url(#paint32_linear_48_207)" stroke-width="4"/>
<path opacity="0.492754" d="M561.124 1085.74C556.222 1093.26 556.146 1102.93 560.894 1110.51L561.124 1110.87L697.404 1319.85C700.803 1325.07 706.165 1328.67 712.255 1329.86L712.847 1329.97L1032.73 1383.89C1037.9 1384.76 1043.21 1383.83 1047.78 1381.28L1048.22 1381.03L1300.45 1232.48C1307.47 1228.35 1311.78 1220.81 1311.78 1212.66L1311.78 983.951C1311.78 976.06 1307.74 968.738 1301.1 964.53L1300.45 964.133L1048.22 815.59C1043.7 812.927 1038.41 811.893 1033.23 812.649L1032.73 812.729L712.847 866.646C706.71 867.681 701.263 871.155 697.739 876.264L697.404 876.763L561.124 1085.74Z" stroke="url(#paint33_linear_48_207)" stroke-width="4"/>
<path opacity="0.507246" d="M545.385 1065.97C540.142 1073.2 539.563 1082.8 543.867 1090.59L544.076 1090.96L667.53 1305.15C670.644 1310.56 675.814 1314.45 681.845 1315.97L682.431 1316.11L994.782 1386.05C999.928 1387.21 1005.31 1386.55 1010.02 1384.22L1010.48 1383.99L1266.71 1249.81C1273.91 1246.04 1278.59 1238.75 1279.01 1230.63L1290.89 1003.88C1291.31 996.024 1287.67 988.518 1281.29 983.964L1280.67 983.533L1039.86 823.304C1035.47 820.383 1030.22 819.062 1024.98 819.553L1024.47 819.607L706.517 856.517C700.323 857.236 694.695 860.438 690.913 865.374L690.552 865.857L545.385 1065.97Z" stroke="url(#paint34_linear_48_207)" stroke-width="4"/>
<path opacity="0.521739" d="M530.669 1046.8C525.101 1053.72 524.027 1063.23 527.877 1071.21L528.064 1071.59L638.528 1290.22C641.346 1295.8 646.307 1299.98 652.261 1301.82L652.84 1301.99L956.869 1387.32C961.972 1388.75 967.408 1388.38 972.259 1386.27L972.726 1386.06L1232.16 1266.25C1239.52 1262.86 1244.55 1255.84 1245.4 1247.78L1268.96 1023.6C1269.78 1015.79 1266.56 1008.12 1260.46 1003.24L1259.86 1002.78L1031 831.649C1026.75 828.475 1021.55 826.867 1016.26 827.089L1015.75 827.117L700.623 847.369C694.387 847.77 688.591 850.691 684.56 855.443L684.176 855.909L530.669 1046.8Z" stroke="url(#paint35_linear_48_207)" stroke-width="4"/>
<path opacity="0.536232" d="M516.928 1028.29C511.053 1034.89 509.492 1044.27 512.881 1052.41L513.046 1052.8L610.396 1275.11C612.908 1280.85 617.647 1285.3 623.507 1287.46L624.078 1287.67L919.039 1387.7C924.085 1389.41 929.563 1389.32 934.539 1387.44L935.019 1387.26L1196.87 1281.79C1204.36 1278.77 1209.73 1272.04 1210.99 1264.05L1245.99 1043.05C1247.22 1035.31 1244.42 1027.51 1238.61 1022.31L1238.04 1021.81L1021.6 840.595C1017.52 837.174 1012.37 835.282 1007.06 835.231L1006.54 835.231L695.104 839.224C688.842 839.304 682.893 841.934 678.621 846.49L678.212 846.937L516.928 1028.29Z" stroke="url(#paint36_linear_48_207)" stroke-width="4"/>
<path opacity="0.550725" d="M504.114 1010.47C497.95 1016.75 495.912 1025.98 498.833 1034.25L498.977 1034.64L583.138 1259.87C585.335 1265.74 589.835 1270.46 595.583 1272.94L596.144 1273.17L881.342 1387.2C886.316 1389.19 891.823 1389.38 896.913 1387.74L897.404 1387.58L1160.88 1296.38C1168.5 1293.74 1174.18 1287.31 1175.86 1279.43L1222.04 1062.17C1223.66 1054.53 1221.29 1046.61 1215.79 1041.11L1215.25 1040.59L1011.65 850.105C1007.74 846.446 1002.67 844.27 997.338 843.944L996.82 843.917L689.899 832.09C683.627 831.848 677.538 834.179 673.035 838.527L672.605 838.955L504.114 1010.47Z" stroke="url(#paint37_linear_48_207)" stroke-width="4"/>
<path opacity="0.565217" d="M492.173 993.41C485.842 999.246 483.317 1008.11 485.573 1016.37L485.806 1017.17L556.745 1244.54C558.619 1250.54 562.866 1255.51 568.486 1258.3L569.034 1258.56L843.824 1385.84C848.711 1388.1 854.232 1388.58 859.425 1387.19L859.927 1387.05L1124.27 1309.99C1131.99 1307.74 1137.97 1301.63 1140.05 1293.87L1197.11 1080.91C1199.13 1073.39 1197.2 1065.37 1192.02 1059.6L1191.51 1059.05L1001.11 860.147C997.385 856.257 992.417 853.799 987.076 853.196L986.558 853.145L684.944 825.977C678.68 825.412 672.466 827.438 667.743 831.567L667.292 831.973L492.173 993.41Z" stroke="url(#paint38_linear_48_207)" stroke-width="4"/>
<path opacity="0.57971" d="M481.054 977.134C474.477 982.62 471.511 991.288 473.299 999.618L473.486 1000.42L531.214 1229.18C532.757 1235.29 536.738 1240.49 542.213 1243.58L542.747 1243.87L806.532 1383.62C811.318 1386.16 816.84 1386.92 822.124 1385.79L822.635 1385.67L1087.09 1322.61C1094.89 1320.75 1101.16 1314.96 1103.63 1307.34L1171.26 1099.22C1173.65 1091.84 1172.16 1083.76 1167.33 1077.73L1166.85 1077.15L989.966 870.684C986.442 866.571 981.583 863.838 976.251 862.956L975.733 862.877L680.182 820.891C673.941 820.004 667.618 821.719 662.686 825.617L662.213 826.001L481.054 977.134Z" stroke="url(#paint39_linear_48_207)" stroke-width="4"/>
<path opacity="0.594203" d="M470.701 961.684C463.899 966.81 460.505 975.259 461.824 983.628L461.966 984.438L506.537 1213.82C507.742 1220.02 511.443 1225.45 516.757 1228.83L517.277 1229.15L769.515 1380.58C774.185 1383.39 779.692 1384.44 785.056 1383.56L785.575 1383.47L1049.42 1334.2C1057.28 1332.73 1063.81 1327.29 1066.67 1319.83L1144.5 1117.07C1147.28 1109.84 1146.23 1101.72 1141.74 1095.45L1141.3 1094.85L978.195 881.68C974.886 877.355 970.152 874.349 964.842 873.188L964.326 873.081L675.551 816.834C669.35 815.626 662.934 817.024 657.804 820.681L657.311 821.042L470.701 961.684Z" stroke="url(#paint40_linear_48_207)" stroke-width="4"/>
<path opacity="0.608696" d="M461.058 947.094C454.051 951.851 450.243 960.059 451.094 968.443L451.192 969.254L482.701 1198.53C483.563 1204.8 486.972 1210.43 492.109 1214.1L492.611 1214.45L732.812 1376.73C737.352 1379.8 742.832 1381.14 748.264 1380.53L748.789 1380.46L1011.31 1344.74C1019.21 1343.67 1025.98 1338.59 1029.22 1331.31L1116.89 1134.39C1120.03 1127.34 1119.42 1119.21 1115.3 1112.72L1114.89 1112.09L965.778 893.099C962.695 888.571 958.101 885.296 952.827 883.856L952.315 883.723L670.99 813.805C664.845 812.278 658.351 813.354 653.035 816.76L652.524 817.097L461.058 947.094Z" stroke="url(#paint41_linear_48_207)" stroke-width="4"/>
<path opacity="0.623188" d="M452.065 933.394C444.874 937.775 440.669 945.721 441.054 954.09L441.107 954.901L459.693 1183.33C460.208 1189.66 463.312 1195.48 468.256 1199.43L468.74 1199.81L696.47 1372.1C700.865 1375.42 706.301 1377.06 711.789 1376.71L712.32 1376.67L972.835 1354.24C980.748 1353.55 987.749 1348.84 991.354 1341.76L1088.47 1151.16C1091.96 1144.31 1091.79 1136.18 1088.05 1129.49L1087.68 1128.85L952.7 904.9C949.856 900.18 945.415 896.644 940.192 894.925L939.684 894.765L666.441 811.798C660.367 809.954 653.811 810.704 648.32 813.852L647.792 814.164L452.065 933.394Z" stroke="url(#paint42_linear_48_207)" stroke-width="4"/>
<path opacity="0.637681" d="M443.663 920.61C436.308 924.608 431.724 932.272 431.647 940.602L431.654 941.41L437.496 1168.28C437.66 1174.64 440.449 1180.64 445.184 1184.86L445.649 1185.26L660.526 1366.71C664.762 1370.28 670.142 1372.21 675.673 1372.13L676.209 1372.12L934.054 1362.66C941.965 1362.37 949.171 1358.03 953.129 1351.18L1059.27 1167.34C1063.1 1160.7 1063.37 1152.6 1060.01 1145.73L1059.68 1145.07L938.945 917.046C936.351 912.147 932.079 908.354 926.92 906.358L926.417 906.17L661.84 810.805C655.855 808.648 649.253 809.068 643.601 811.948L643.058 812.235L443.663 920.61Z" stroke="url(#paint43_linear_48_207)" stroke-width="4"/>
<path opacity="0.652174" d="M435.794 908.765C428.296 912.374 423.351 919.739 422.817 928.002L422.78 928.804L416.093 1153.41C415.904 1159.79 418.368 1165.94 422.881 1170.42L423.324 1170.85L625.025 1360.58C629.087 1364.41 634.395 1366.62 639.956 1366.82L640.496 1366.83L895.034 1370.01C902.924 1370.11 910.314 1366.16 914.612 1359.54L1029.34 1182.88C1033.5 1176.47 1034.2 1168.42 1031.24 1161.41L1030.94 1160.73L924.503 929.497C922.171 924.431 918.08 920.39 912.999 918.118L912.505 917.904L657.133 810.813C651.253 808.348 644.623 808.437 638.822 811.041L638.264 811.3L435.794 908.765Z" stroke="url(#paint44_linear_48_207)" stroke-width="4"/>
<path opacity="0.666667" d="M428.394 897.877C420.775 901.094 415.489 908.141 414.504 916.311L414.423 917.106L395.464 1138.77C394.92 1145.14 397.05 1151.44 401.326 1156.16L401.746 1156.62L589.998 1353.76C593.874 1357.82 599.096 1360.32 604.676 1360.79L605.218 1360.83L855.844 1376.29C863.693 1376.78 871.244 1373.22 875.867 1366.86L998.725 1197.76C1003.2 1191.59 1004.33 1183.63 1001.77 1176.48L1001.51 1175.8L909.363 942.214C907.304 936.993 903.408 932.711 898.42 930.166L897.934 929.925L652.263 811.808C646.503 809.039 639.86 808.795 633.924 811.115L633.352 811.348L428.394 897.877Z" stroke="url(#paint45_linear_48_207)" stroke-width="4"/>
<path opacity="0.681159" d="M421.402 887.963C413.683 890.784 408.076 897.499 406.649 905.552L406.524 906.335L375.586 1124.4C374.686 1130.74 376.473 1137.16 380.499 1142.12L380.896 1142.6L555.486 1346.27C559.162 1350.56 564.282 1353.34 569.867 1354.1L570.409 1354.16L816.545 1381.5C824.333 1382.37 832.026 1379.21 836.957 1373.12L967.474 1211.94C972.251 1206.04 973.8 1198.18 971.65 1190.93L971.431 1190.23L893.517 955.158C891.74 949.796 888.054 945.282 883.172 942.468L882.695 942.201L647.172 813.773C641.547 810.706 634.907 810.128 628.85 812.158L628.266 812.363L421.402 887.963Z" stroke="url(#paint46_linear_48_207)" stroke-width="4"/>
<path opacity="0.695652" d="M414.755 879.034C406.959 881.457 401.051 887.824 399.193 895.734L399.026 896.503L356.433 1110.32C355.178 1116.62 356.616 1123.15 360.378 1128.33L360.749 1128.83L521.519 1338.15C524.981 1342.66 529.987 1345.72 535.564 1346.75L536.105 1346.85L777.201 1385.64C784.91 1386.88 792.722 1384.12 797.947 1378.32L935.632 1225.41C940.694 1219.78 942.658 1212.05 940.922 1204.72L940.742 1204.01L876.96 968.289C875.475 962.801 872.012 958.064 867.249 954.983L866.785 954.691L641.806 816.683C636.332 813.325 629.712 812.413 623.548 814.148L622.953 814.324L414.755 879.034Z" stroke="url(#paint47_linear_48_207)" stroke-width="4"/>
<path opacity="0.710145" d="M408.394 871.096C400.541 873.121 394.353 879.126 392.074 886.87L391.866 887.625L337.981 1096.59C336.373 1102.82 337.455 1109.44 340.941 1114.82L341.286 1115.34L488.128 1329.43C491.365 1334.14 496.241 1337.48 501.797 1338.8L502.337 1338.92L737.877 1388.72C745.489 1390.33 753.397 1387.98 758.898 1382.48L903.252 1238.13C908.581 1232.8 910.95 1225.21 909.63 1217.82L909.491 1217.11L859.688 981.567C858.504 975.968 855.277 971.018 850.648 967.676L850.195 967.358L636.112 820.516C630.803 816.875 624.22 815.63 617.964 817.064L617.36 817.211L408.394 871.096Z" stroke="url(#paint48_linear_48_207)" stroke-width="4"/>
<path opacity="0.724638" d="M402.256 864.154C394.367 865.782 387.923 871.412 385.235 878.966L384.986 879.703L320.202 1083.23C318.245 1089.37 318.962 1096.05 322.161 1101.64L322.479 1102.17L455.345 1320.14C458.344 1325.06 463.076 1328.67 468.598 1330.27L469.135 1330.41L698.636 1390.76C706.131 1392.73 714.115 1390.79 719.875 1385.61L870.382 1250.09C875.961 1245.06 878.726 1237.65 877.824 1230.22L877.725 1229.5L841.702 994.953C840.827 989.258 837.848 984.106 833.365 980.508L832.927 980.165L630.041 825.243C624.912 821.327 618.382 819.751 612.048 820.88L611.435 820.998L402.256 864.154Z" stroke="url(#paint49_linear_48_207)" stroke-width="4"/>
<path opacity="0.73913" d="M396.279 858.208C388.375 859.44 381.698 864.685 378.615 872.027L378.329 872.744L303.066 1070.26C300.763 1076.31 301.115 1083.03 304.016 1088.8L304.304 1089.35L423.195 1310.33C425.944 1315.44 430.519 1319.32 435.994 1321.19L436.527 1321.37L659.538 1391.77C666.9 1394.09 674.936 1392.56 680.935 1387.71L837.074 1261.27C842.885 1256.56 846.035 1249.34 845.551 1241.9L845.493 1241.18L823.002 1008.41C822.444 1002.63 819.725 997.291 815.402 993.442L814.979 993.074L623.543 830.835C618.607 826.653 612.147 824.748 605.749 825.569L605.13 825.656L396.279 858.208Z" stroke="url(#paint50_linear_48_207)" stroke-width="4"/>
<path opacity="0.753623" d="M390.402 853.253C382.505 854.092 375.618 858.943 372.156 866.051L371.831 866.745L286.542 1057.73C283.898 1063.65 283.88 1070.41 286.472 1076.33L286.731 1076.9L391.704 1300.04C394.191 1305.33 398.593 1309.47 404.009 1311.62L404.536 1311.82L620.641 1391.76C627.852 1394.43 635.919 1393.32 642.14 1388.8L803.376 1271.66C809.402 1267.28 812.922 1260.26 812.856 1252.84L812.839 1252.12L803.59 1021.89C803.356 1016.06 800.909 1010.53 796.759 1006.44L796.351 1006.05L616.57 837.259C611.842 832.82 605.467 830.591 599.021 831.099L598.398 831.156L390.402 853.253Z" stroke="url(#paint51_linear_48_207)" stroke-width="4"/>
<path opacity="0.768116" d="M384.567 849.284C376.696 849.734 369.622 854.181 365.797 861.035L365.438 861.706L270.599 1045.66C267.62 1051.44 267.23 1058.2 269.504 1064.27L269.733 1064.85L360.891 1289.31C363.106 1294.76 367.324 1299.15 372.666 1301.58L373.187 1301.81L582.005 1390.78C589.049 1393.78 597.125 1393.08 603.546 1388.91L769.343 1281.24C775.563 1277.2 779.441 1270.42 779.79 1263.04L779.813 1262.32L783.473 1035.37C783.568 1029.49 781.405 1023.8 777.44 1019.47L777.051 1019.05L609.078 844.48C604.57 839.795 598.298 837.243 591.819 837.436L591.191 837.465L384.567 849.284Z" stroke="url(#paint52_linear_48_207)" stroke-width="4"/>
<path opacity="0.782609" d="M378.714 846.288C370.889 846.354 363.653 850.393 359.483 856.974L359.089 857.618L255.202 1034.07C251.896 1039.69 251.132 1046.43 253.08 1052.63L253.277 1053.23L330.78 1278.17C332.711 1283.78 336.73 1288.42 341.986 1291.13L342.499 1291.38L543.683 1388.83C550.544 1392.16 558.607 1391.87 565.21 1388.05L735.024 1290.01C741.42 1286.32 745.64 1279.79 746.4 1272.47L746.463 1271.76L762.659 1048.8C763.088 1042.89 761.218 1037.05 757.451 1032.49L757.081 1032.05L601.027 852.459C596.752 847.539 590.597 844.671 584.1 844.548L583.47 844.545L378.714 846.288Z" stroke="url(#paint53_linear_48_207)" stroke-width="4"/>
<path opacity="0.797101" d="M372.786 844.251C365.027 843.94 357.654 847.564 353.157 853.852L352.731 854.469L240.32 1022.99C236.694 1028.42 235.557 1035.14 237.171 1041.45L237.336 1042.06L301.386 1266.68C303.024 1272.42 306.831 1277.3 311.988 1280.28L312.492 1280.57L505.732 1385.96C512.396 1389.59 520.424 1389.71 527.187 1386.26L700.471 1297.97C707.022 1294.63 711.57 1288.37 712.735 1281.14L712.837 1280.43L741.156 1062.15C741.925 1056.23 740.358 1050.24 736.802 1045.46L736.451 1045L592.376 861.156C588.345 856.012 582.324 852.834 575.824 852.395L575.193 852.361L372.786 844.251Z" stroke="url(#paint54_linear_48_207)" stroke-width="4"/>
<path opacity="0.811594" d="M366.737 843.165C359.064 842.483 351.577 845.688 346.774 851.668L346.318 852.256L225.927 1012.44C221.991 1017.68 220.48 1024.33 221.754 1030.74L221.886 1031.36L272.736 1254.88C274.071 1260.75 277.652 1265.85 282.699 1269.11L283.192 1269.42L468.214 1382.2C474.665 1386.13 482.637 1386.64 489.539 1383.57L665.745 1305.12C672.432 1302.14 677.288 1296.16 678.853 1289.04L678.995 1288.35L718.987 1075.39C720.098 1069.47 718.844 1063.36 715.51 1058.37L715.181 1057.89L583.099 870.538C579.324 865.183 573.452 861.701 566.964 860.945L566.334 860.88L366.737 843.165Z" stroke="url(#paint55_linear_48_207)" stroke-width="4"/>
<path opacity="0.826087" d="M360.492 842.991C352.923 841.948 345.348 844.733 340.258 850.389L339.773 850.944L211.964 1002.43C207.729 1007.45 205.848 1014.03 206.775 1020.51L206.873 1021.14L244.818 1242.8C245.841 1248.78 249.185 1254.1 254.107 1257.63L254.59 1257.96L431.153 1377.56C437.379 1381.78 445.274 1382.69 452.294 1379.99L630.874 1311.44C637.676 1308.83 642.824 1303.16 644.78 1296.17L644.959 1295.49L696.143 1088.46C697.599 1082.57 696.667 1076.35 693.566 1071.16L693.259 1070.66L573.139 880.545C569.631 874.992 563.922 871.212 557.462 870.14L556.835 870.045L360.492 842.991Z" stroke="url(#paint56_linear_48_207)" stroke-width="4"/>
<path opacity="0.84058" d="M354.007 843.718C346.56 842.322 338.921 844.685 333.567 850.002L333.056 850.525L198.407 992.98C193.883 997.766 191.635 1004.25 192.21 1010.79L192.275 1011.43L217.653 1230.49C218.357 1236.57 221.45 1242.11 226.236 1245.89L226.706 1246.25L394.608 1372.11C400.596 1376.6 408.394 1377.89 415.511 1375.58L595.918 1316.96C602.813 1314.72 608.235 1309.37 610.572 1302.53L610.789 1301.87L672.647 1101.35C674.45 1095.51 673.849 1089.19 670.993 1083.8L670.709 1083.29L562.477 891.14C559.245 885.403 553.715 881.334 547.298 879.947L546.674 879.822L354.007 843.718Z" stroke="url(#paint57_linear_48_207)" stroke-width="4"/>
<path opacity="0.855072" d="M347.221 845.307C339.914 843.569 332.234 845.512 326.638 850.477L326.103 850.966L185.206 984.1C180.406 988.635 177.795 995.006 178.014 1001.58L178.044 1002.22L191.236 1218C191.612 1224.15 194.445 1229.89 199.082 1233.93L199.536 1234.32L358.611 1365.86C364.349 1370.61 372.029 1372.28 379.221 1370.36L560.915 1321.67C567.882 1319.8 573.556 1314.78 576.265 1308.13L576.518 1307.48L648.507 1114.02C650.657 1108.24 650.394 1101.84 647.793 1096.27L647.534 1095.73L551.071 902.269C548.125 896.36 542.787 892.012 536.428 890.313L535.808 890.156L347.221 845.307Z" stroke="url(#paint58_linear_48_207)" stroke-width="4"/>
<path opacity="0.869565" d="M340.11 847.747C332.959 845.678 325.264 847.201 319.449 851.802L318.893 852.257L172.349 975.815C167.288 980.082 164.319 986.315 164.18 992.913L164.175 993.553L165.598 1205.37C165.64 1211.59 168.199 1217.52 172.675 1221.81L173.114 1222.22L323.226 1358.89C328.703 1363.87 336.247 1365.92 343.492 1364.38L525.936 1325.6C532.955 1324.11 538.861 1319.43 541.928 1312.97L542.217 1312.34L623.765 1126.43C626.263 1120.74 626.345 1114.28 624.009 1108.53L623.776 1107.98L538.922 913.898C536.27 907.832 531.138 903.213 524.851 901.203L524.24 901.018L340.11 847.747Z" stroke="url(#paint59_linear_48_207)" stroke-width="4"/>
<path opacity="0.884058" d="M332.616 850.994C325.637 848.606 317.95 849.714 311.94 853.941L311.363 854.36L159.787 968.123C154.478 972.107 151.158 978.184 150.658 984.782L150.618 985.422L140.727 1192.65C140.428 1198.92 142.701 1205.02 147.005 1209.56L147.427 1210L288.481 1351.22C293.687 1356.43 301.075 1358.83 308.352 1357.68L491.014 1328.75C498.063 1327.63 504.181 1323.31 507.594 1317.07L507.915 1316.46L598.427 1138.57C601.272 1132.98 601.705 1126.47 599.645 1120.57L599.437 1120L525.994 925.968C523.644 919.76 518.731 914.881 512.533 912.565L511.928 912.349L332.616 850.994Z" stroke="url(#paint60_linear_48_207)" stroke-width="4"/>
<path opacity="0.898551" d="M324.694 855.016C317.901 852.322 310.247 853.019 304.066 856.864L303.473 857.246L147.481 961.035C141.94 964.721 138.277 970.62 137.416 977.199L137.341 977.837L116.623 1179.88C115.977 1186.18 117.955 1192.45 122.074 1197.23L122.48 1197.69L254.41 1342.9C259.336 1348.32 266.551 1351.07 273.836 1350.3L456.195 1331.14C463.253 1330.4 469.56 1326.44 473.303 1320.44L473.657 1319.85L572.514 1150.39C575.704 1144.92 576.495 1138.39 574.72 1132.33L574.54 1131.75L512.268 938.431C510.227 932.096 505.546 926.967 499.45 924.35L498.856 924.104L324.694 855.016Z" stroke="url(#paint61_linear_48_207)" stroke-width="4"/>
<path opacity="0.913043" d="M316.303 859.775C309.712 856.788 302.112 857.083 295.785 860.539L295.176 860.883L135.393 954.554C129.636 957.929 125.639 963.631 124.417 970.169L124.307 970.805L93.2803 1167.1C92.2831 1173.41 93.9555 1179.84 97.879 1184.86L98.265 1185.34L221.041 1333.98C225.68 1339.59 232.705 1342.68 239.978 1342.3L421.52 1332.79C428.567 1332.42 435.041 1328.83 439.099 1323.09L439.484 1322.53L546.051 1161.87C549.582 1156.55 550.735 1150.01 549.254 1143.81L549.102 1143.22L497.726 951.235C496.001 944.789 491.566 939.421 485.586 936.506L485.003 936.232L316.303 859.775Z" stroke="url(#paint62_linear_48_207)" stroke-width="4"/>
<path opacity="0.927536" d="M307.407 865.234C301.03 861.969 293.508 861.866 287.059 864.928L286.438 865.234L123.49 948.684C117.534 951.733 113.211 957.219 111.629 963.698L111.485 964.328L70.6968 1154.37C69.3438 1160.67 70.7012 1167.24 74.4175 1172.49L74.7847 1172.99L188.409 1324.51C192.752 1330.3 199.57 1333.71 206.81 1333.71L387.035 1333.71C394.048 1333.71 400.665 1330.51 405.021 1325.05L405.436 1324.51L519.06 1172.99C522.928 1167.83 524.449 1161.3 523.27 1154.98L523.148 1154.37L482.36 964.328C480.956 957.786 476.775 952.192 470.926 948.986L470.355 948.684L307.407 865.234Z" stroke="url(#paint63_linear_48_207)" stroke-width="4"/>
<path opacity="0.942029" d="M297.967 871.349C291.816 867.82 284.394 867.331 277.85 869.995L277.22 870.262L111.731 943.422C105.595 946.135 100.96 951.386 99.0201 957.785L98.8408 958.409L48.8635 1141.71C47.1512 1147.99 48.1826 1154.69 51.6811 1160.16L52.0281 1160.69L156.535 1314.55C160.578 1320.5 167.172 1324.21 174.357 1324.59L352.776 1333.94C359.736 1334.31 366.473 1331.49 371.108 1326.32L371.55 1325.81L491.567 1183.72C495.768 1178.75 497.659 1172.24 496.791 1165.8L496.698 1165.18L466.155 977.659C465.077 971.037 461.164 965.228 455.46 961.737L454.902 961.407L297.967 871.349Z" stroke="url(#paint64_linear_48_207)" stroke-width="4"/>
<path opacity="0.956522" d="M287.952 878.08C282.04 874.303 274.739 873.437 268.124 875.7L267.487 875.929L100.081 938.77C93.7833 941.134 88.8466 946.131 86.5524 952.431L86.3386 953.045L27.7695 1129.18C25.6953 1135.42 26.3921 1142.24 29.6625 1147.92L29.9871 1148.46L125.441 1304.13C129.177 1310.23 135.535 1314.24 142.644 1314.99L318.781 1333.5C325.668 1334.22 332.502 1331.8 337.397 1326.94L337.865 1326.46L463.599 1194.04C468.125 1189.27 470.388 1182.8 469.838 1176.27L469.776 1175.64L449.108 991.174C448.359 984.489 444.723 978.478 439.177 974.71L438.634 974.353L287.952 878.08Z" stroke="url(#paint65_linear_48_207)" stroke-width="4"/>
<path opacity="0.971014" d="M277.333 885.381C271.67 881.372 264.51 880.14 257.85 882.002L257.207 882.192L88.5059 934.72C82.0663 936.725 76.8419 941.451 74.1975 947.632L73.9497 948.235L7.403 1116.82C4.96498 1122.99 5.31814 1129.91 8.35007 1135.79L8.65197 1136.36L95.1467 1293.33C98.5732 1299.55 104.68 1303.84 111.692 1304.95L285.088 1332.41C291.881 1333.49 298.787 1331.47 303.922 1326.92L304.413 1326.48L435.181 1203.92C440.026 1199.38 442.664 1192.97 442.439 1186.36L442.408 1185.71L431.213 1004.82C430.797 998.088 427.448 991.89 422.072 987.852L421.546 987.468L277.333 885.381Z" stroke="url(#paint66_linear_48_207)" stroke-width="4"/>
<path opacity="0.985507" d="M266.084 893.204C260.678 888.98 253.679 887.397 246.999 888.86L246.354 889.011L76.9689 931.268C70.4074 932.905 64.9104 937.343 61.9216 943.384L61.6395 943.974L-12.252 1104.66C-15.055 1110.75 -15.0523 1117.76 -12.2687 1123.84L-11.9907 1124.42L65.6663 1282.19C68.7801 1288.52 74.6237 1293.06 81.5203 1294.53L251.728 1330.71C258.409 1332.13 265.363 1330.5 270.717 1326.3L271.23 1325.88L406.343 1213.34C411.498 1209.05 414.514 1202.73 414.621 1196.04L414.622 1195.39L412.473 1018.55C412.391 1011.78 409.338 1005.41 404.147 1001.11L403.638 1000.7L266.084 893.204Z" stroke="url(#paint67_linear_48_207)" stroke-width="4"/>
<path d="M254.179 901.506C249.04 897.083 242.22 895.161 235.546 896.228L234.9 896.34L65.4364 928.405C58.774 929.665 53.0189 933.799 49.6921 939.682L49.3774 940.256L-31.2124 1092.74C-34.3808 1098.74 -34.7376 1105.81 -32.2121 1112.08L-31.9584 1112.69L37.0106 1270.77C39.8096 1277.18 45.3782 1281.97 52.1391 1283.78L218.733 1328.42C225.283 1330.18 232.261 1328.95 237.811 1325.09L238.344 1324.71L377.113 1222.3C382.569 1218.27 385.961 1212.05 386.405 1205.3L386.439 1204.65L392.889 1032.3C393.142 1025.52 390.393 1018.99 385.397 1014.44L384.907 1014.01L254.179 901.506Z" stroke="url(#paint68_linear_48_207)" stroke-width="4"/>
<path d="M246.047 915.625C241.332 910.752 234.716 908.216 227.973 908.67L227.32 908.723L55.6382 925.202C48.8886 925.85 42.7805 929.441 38.9313 934.997L38.5654 935.54L-55.5918 1080.04C-59.2936 1085.72 -60.2942 1092.74 -58.3509 1099.21L-58.1533 1099.83L-3.88501 1263.55C-1.6826 1270.19 3.42594 1275.47 9.99352 1277.89L171.823 1337.53C178.186 1339.88 185.247 1339.29 191.126 1335.96L191.691 1335.62L339.22 1246.29C345.02 1242.77 348.966 1236.89 350.023 1230.21L350.116 1229.57L372.253 1058.52C373.124 1051.8 370.981 1045.04 366.421 1040.05L365.973 1039.58L246.047 915.625Z" stroke="url(#paint69_linear_48_207)" stroke-width="4"/>
<defs>
<linearGradient id="paint0_linear_48_207" x1="1761.3" y1="1645.94" x2="1577.41" y2="484.925" gradientUnits="userSpaceOnUse">
<stop stop-color="#FF1CF7"/>
<stop offset="1" stop-color="#00F0FF"/>
</linearGradient>
<linearGradient id="paint1_linear_48_207" x1="1709.53" y1="1645.2" x2="1587.74" y2="486.469" gradientUnits="userSpaceOnUse">
<stop stop-color="#FF1CF7"/>
<stop offset="1" stop-color="#00F0FF"/>
</linearGradient>
<linearGradient id="paint2_linear_48_207" x1="1658.13" y1="1642.87" x2="1597.69" y2="489.718" gradientUnits="userSpaceOnUse">
<stop stop-color="#FF1CF7"/>
<stop offset="1" stop-color="#00F0FF"/>
</linearGradient>
<linearGradient id="paint3_linear_48_207" x1="1607.16" y1="1639" x2="1607.16" y2="494.634" gradientUnits="userSpaceOnUse">
<stop stop-color="#FF1CF7"/>
<stop offset="1" stop-color="#00F0FF"/>
</linearGradient>
<linearGradient id="paint4_linear_48_207" x1="1556.72" y1="1633.61" x2="1616.07" y2="501.174" gradientUnits="userSpaceOnUse">
<stop stop-color="#FF1CF7"/>
<stop offset="1" stop-color="#00F0FF"/>
</linearGradient>
<linearGradient id="paint5_linear_48_207" x1="1506.89" y1="1626.75" x2="1624.34" y2="509.293" gradientUnits="userSpaceOnUse">
<stop stop-color="#FF1CF7"/>
<stop offset="1" stop-color="#00F0FF"/>
</linearGradient>
<linearGradient id="paint6_linear_48_207" x1="1457.72" y1="1618.47" x2="1631.87" y2="518.94" gradientUnits="userSpaceOnUse">
<stop stop-color="#FF1CF7"/>
<stop offset="1" stop-color="#00F0FF"/>
</linearGradient>
<linearGradient id="paint7_linear_48_207" x1="1409.31" y1="1608.82" x2="1638.61" y2="530.061" gradientUnits="userSpaceOnUse">
<stop stop-color="#FF1CF7"/>
<stop offset="1" stop-color="#00F0FF"/>
</linearGradient>
<linearGradient id="paint8_linear_48_207" x1="1361.71" y1="1597.86" x2="1644.46" y2="542.596" gradientUnits="userSpaceOnUse">
<stop stop-color="#FF1CF7"/>
<stop offset="1" stop-color="#00F0FF"/>
</linearGradient>
<linearGradient id="paint9_linear_48_207" x1="1314.99" y1="1585.63" x2="1649.38" y2="556.484" gradientUnits="userSpaceOnUse">
<stop stop-color="#FF1CF7"/>
<stop offset="1" stop-color="#00F0FF"/>
</linearGradient>
<linearGradient id="paint10_linear_48_207" x1="1269.2" y1="1572.21" x2="1653.28" y2="571.66" gradientUnits="userSpaceOnUse">
<stop stop-color="#FF1CF7"/>
<stop offset="1" stop-color="#00F0FF"/>
</linearGradient>
<linearGradient id="paint11_linear_48_207" x1="1224.43" y1="1557.66" x2="1656.13" y2="588.057" gradientUnits="userSpaceOnUse">
<stop stop-color="#FF1CF7"/>
<stop offset="1" stop-color="#00F0FF"/>
</linearGradient>
<linearGradient id="paint12_linear_48_207" x1="1180.69" y1="1542.04" x2="1657.83" y2="605.601" gradientUnits="userSpaceOnUse">
<stop stop-color="#FF1CF7"/>
<stop offset="1" stop-color="#00F0FF"/>
</linearGradient>
<linearGradient id="paint13_linear_48_207" x1="1138.05" y1="1525.42" x2="1658.36" y2="624.218" gradientUnits="userSpaceOnUse">
<stop stop-color="#FF1CF7"/>
<stop offset="1" stop-color="#00F0FF"/>
</linearGradient>
<linearGradient id="paint14_linear_48_207" x1="1096.55" y1="1507.86" x2="1657.66" y2="643.834" gradientUnits="userSpaceOnUse">
<stop stop-color="#FF1CF7"/>
<stop offset="1" stop-color="#00F0FF"/>
</linearGradient>
<linearGradient id="paint15_linear_48_207" x1="1056.23" y1="1489.46" x2="1655.69" y2="664.37" gradientUnits="userSpaceOnUse">
<stop stop-color="#FF1CF7"/>
<stop offset="1" stop-color="#00F0FF"/>
</linearGradient>
<linearGradient id="paint16_linear_48_207" x1="1017.13" y1="1470.27" x2="1652.42" y2="685.747" gradientUnits="userSpaceOnUse">
<stop stop-color="#FF1CF7"/>
<stop offset="1" stop-color="#00F0FF"/>
</linearGradient>
<linearGradient id="paint17_linear_48_207" x1="979.267" y1="1450.37" x2="1647.8" y2="707.884" gradientUnits="userSpaceOnUse">
<stop stop-color="#FF1CF7"/>
<stop offset="1" stop-color="#00F0FF"/>
</linearGradient>
<linearGradient id="paint18_linear_48_207" x1="942.679" y1="1429.84" x2="1641.82" y2="730.698" gradientUnits="userSpaceOnUse">
<stop stop-color="#FF1CF7"/>
<stop offset="1" stop-color="#00F0FF"/>
</linearGradient>
<linearGradient id="paint19_linear_48_207" x1="907.385" y1="1408.76" x2="1634.45" y2="754.112" gradientUnits="userSpaceOnUse">
<stop stop-color="#FF1CF7"/>
<stop offset="1" stop-color="#00F0FF"/>
</linearGradient>
<linearGradient id="paint20_linear_48_207" x1="873.403" y1="1387.21" x2="1625.67" y2="778.032" gradientUnits="userSpaceOnUse">
<stop stop-color="#FF1CF7"/>
<stop offset="1" stop-color="#00F0FF"/>
</linearGradient>
<linearGradient id="paint21_linear_48_207" x1="840.742" y1="1365.25" x2="1615.47" y2="802.381" gradientUnits="userSpaceOnUse">
<stop stop-color="#FF1CF7"/>
<stop offset="1" stop-color="#00F0FF"/>
</linearGradient>
<linearGradient id="paint22_linear_48_207" x1="809.413" y1="1342.98" x2="1603.83" y2="827.074" gradientUnits="userSpaceOnUse">
<stop stop-color="#FF1CF7"/>
<stop offset="1" stop-color="#00F0FF"/>
</linearGradient>
<linearGradient id="paint23_linear_48_207" x1="779.418" y1="1320.46" x2="1590.77" y2="852.029" gradientUnits="userSpaceOnUse">
<stop stop-color="#FF1CF7"/>
<stop offset="1" stop-color="#00F0FF"/>
</linearGradient>
<linearGradient id="paint24_linear_48_207" x1="750.757" y1="1297.78" x2="1576.26" y2="877.161" gradientUnits="userSpaceOnUse">
<stop stop-color="#FF1CF7"/>
<stop offset="1" stop-color="#00F0FF"/>
</linearGradient>
<linearGradient id="paint25_linear_48_207" x1="723.423" y1="1275" x2="1560.33" y2="902.388" gradientUnits="userSpaceOnUse">
<stop stop-color="#FF1CF7"/>
<stop offset="1" stop-color="#00F0FF"/>
</linearGradient>
<linearGradient id="paint26_linear_48_207" x1="697.408" y1="1252.22" x2="1542.99" y2="927.631" gradientUnits="userSpaceOnUse">
<stop stop-color="#FF1CF7"/>
<stop offset="1" stop-color="#00F0FF"/>
</linearGradient>
<linearGradient id="paint27_linear_48_207" x1="672.698" y1="1229.49" x2="1524.24" y2="952.811" gradientUnits="userSpaceOnUse">
<stop stop-color="#FF1CF7"/>
<stop offset="1" stop-color="#00F0FF"/>
</linearGradient>
<linearGradient id="paint28_linear_48_207" x1="649.275" y1="1206.9" x2="1504.11" y2="977.846" gradientUnits="userSpaceOnUse">
<stop stop-color="#FF1CF7"/>
<stop offset="1" stop-color="#00F0FF"/>
</linearGradient>
<linearGradient id="paint29_linear_48_207" x1="627.115" y1="1184.51" x2="1482.62" y2="1002.66" gradientUnits="userSpaceOnUse">
<stop stop-color="#FF1CF7"/>
<stop offset="1" stop-color="#00F0FF"/>
</linearGradient>
<linearGradient id="paint30_linear_48_207" x1="606.195" y1="1162.39" x2="1459.79" y2="1027.19" gradientUnits="userSpaceOnUse">
<stop stop-color="#FF1CF7"/>
<stop offset="1" stop-color="#00F0FF"/>
</linearGradient>
<linearGradient id="paint31_linear_48_207" x1="586.472" y1="1140.6" x2="1435.66" y2="1051.35" gradientUnits="userSpaceOnUse">
<stop stop-color="#FF1CF7"/>
<stop offset="1" stop-color="#00F0FF"/>
</linearGradient>
<linearGradient id="paint32_linear_48_207" x1="567.937" y1="1119.22" x2="1410.27" y2="1075.08" gradientUnits="userSpaceOnUse">
<stop stop-color="#FF1CF7"/>
<stop offset="1" stop-color="#00F0FF"/>
</linearGradient>
<linearGradient id="paint33_linear_48_207" x1="550.543" y1="1098.31" x2="1383.66" y2="1098.31" gradientUnits="userSpaceOnUse">
<stop stop-color="#FF1CF7"/>
<stop offset="1" stop-color="#00F0FF"/>
</linearGradient>
<linearGradient id="paint34_linear_48_207" x1="534.249" y1="1077.92" x2="1355.86" y2="1120.98" gradientUnits="userSpaceOnUse">
<stop stop-color="#FF1CF7"/>
<stop offset="1" stop-color="#00F0FF"/>
</linearGradient>
<linearGradient id="paint35_linear_48_207" x1="519.013" y1="1058.1" x2="1326.93" y2="1143.02" gradientUnits="userSpaceOnUse">
<stop stop-color="#FF1CF7"/>
<stop offset="1" stop-color="#00F0FF"/>
</linearGradient>
<linearGradient id="paint36_linear_48_207" x1="504.789" y1="1038.93" x2="1296.9" y2="1164.38" gradientUnits="userSpaceOnUse">
<stop stop-color="#FF1CF7"/>
<stop offset="1" stop-color="#00F0FF"/>
</linearGradient>
<linearGradient id="paint37_linear_48_207" x1="491.531" y1="1020.43" x2="1265.84" y2="1185.02" gradientUnits="userSpaceOnUse">
<stop stop-color="#FF1CF7"/>
<stop offset="1" stop-color="#00F0FF"/>
</linearGradient>
<linearGradient id="paint38_linear_48_207" x1="479.185" y1="1002.66" x2="1233.8" y2="1204.86" gradientUnits="userSpaceOnUse">
<stop stop-color="#FF1CF7"/>
<stop offset="1" stop-color="#00F0FF"/>
</linearGradient>
<linearGradient id="paint39_linear_48_207" x1="467.701" y1="985.669" x2="1200.83" y2="1223.88" gradientUnits="userSpaceOnUse">
<stop stop-color="#FF1CF7"/>
<stop offset="1" stop-color="#00F0FF"/>
</linearGradient>
<linearGradient id="paint40_linear_48_207" x1="457.024" y1="969.487" x2="1167" y2="1242.02" gradientUnits="userSpaceOnUse">
<stop stop-color="#FF1CF7"/>
<stop offset="1" stop-color="#00F0FF"/>
</linearGradient>
<linearGradient id="paint41_linear_48_207" x1="447.097" y1="954.155" x2="1132.36" y2="1259.25" gradientUnits="userSpaceOnUse">
<stop stop-color="#FF1CF7"/>
<stop offset="1" stop-color="#00F0FF"/>
</linearGradient>
<linearGradient id="paint42_linear_48_207" x1="437.863" y1="939.703" x2="1096.97" y2="1275.54" gradientUnits="userSpaceOnUse">
<stop stop-color="#FF1CF7"/>
<stop offset="1" stop-color="#00F0FF"/>
</linearGradient>
<linearGradient id="paint43_linear_48_207" x1="429.261" y1="926.161" x2="1060.91" y2="1290.84" gradientUnits="userSpaceOnUse">
<stop stop-color="#FF1CF7"/>
<stop offset="1" stop-color="#00F0FF"/>
</linearGradient>
<linearGradient id="paint44_linear_48_207" x1="421.232" y1="913.554" x2="1024.23" y2="1305.14" gradientUnits="userSpaceOnUse">
<stop stop-color="#FF1CF7"/>
<stop offset="1" stop-color="#00F0FF"/>
</linearGradient>
<linearGradient id="paint45_linear_48_207" x1="413.716" y1="901.902" x2="986.995" y2="1318.41" gradientUnits="userSpaceOnUse">
<stop stop-color="#FF1CF7"/>
<stop offset="1" stop-color="#00F0FF"/>
</linearGradient>
<linearGradient id="paint46_linear_48_207" x1="406.648" y1="891.226" x2="949.281" y2="1330.64" gradientUnits="userSpaceOnUse">
<stop stop-color="#FF1CF7"/>
<stop offset="1" stop-color="#00F0FF"/>
</linearGradient>
<linearGradient id="paint47_linear_48_207" x1="399.968" y1="881.535" x2="911.149" y2="1341.81" gradientUnits="userSpaceOnUse">
<stop stop-color="#FF1CF7"/>
<stop offset="1" stop-color="#00F0FF"/>
</linearGradient>
<linearGradient id="paint48_linear_48_207" x1="393.612" y1="872.842" x2="872.668" y2="1351.9" gradientUnits="userSpaceOnUse">
<stop stop-color="#FF1CF7"/>
<stop offset="1" stop-color="#00F0FF"/>
</linearGradient>
<linearGradient id="paint49_linear_48_207" x1="387.52" y1="865.152" x2="833.905" y2="1360.91" gradientUnits="userSpaceOnUse">
<stop stop-color="#FF1CF7"/>
<stop offset="1" stop-color="#00F0FF"/>
</linearGradient>
<linearGradient id="paint50_linear_48_207" x1="381.629" y1="858.467" x2="794.927" y2="1368.85" gradientUnits="userSpaceOnUse">
<stop stop-color="#FF1CF7"/>
<stop offset="1" stop-color="#00F0FF"/>
</linearGradient>
<linearGradient id="paint51_linear_48_207" x1="375.876" y1="852.785" x2="755.798" y2="1375.7" gradientUnits="userSpaceOnUse">
<stop stop-color="#FF1CF7"/>
<stop offset="1" stop-color="#00F0FF"/>
</linearGradient>
<linearGradient id="paint52_linear_48_207" x1="370.201" y1="848.102" x2="716.585" y2="1381.49" gradientUnits="userSpaceOnUse">
<stop stop-color="#FF1CF7"/>
<stop offset="1" stop-color="#00F0FF"/>
</linearGradient>
<linearGradient id="paint53_linear_48_207" x1="364.546" y1="844.408" x2="677.352" y2="1386.2" gradientUnits="userSpaceOnUse">
<stop stop-color="#FF1CF7"/>
<stop offset="1" stop-color="#00F0FF"/>
</linearGradient>
<linearGradient id="paint54_linear_48_207" x1="358.851" y1="841.691" x2="638.163" y2="1389.87" gradientUnits="userSpaceOnUse">
<stop stop-color="#FF1CF7"/>
<stop offset="1" stop-color="#00F0FF"/>
</linearGradient>
<linearGradient id="paint55_linear_48_207" x1="353.07" y1="839.943" x2="599.089" y2="1392.51" gradientUnits="userSpaceOnUse">
<stop stop-color="#FF1CF7"/>
<stop offset="1" stop-color="#00F0FF"/>
</linearGradient>
<linearGradient id="paint56_linear_48_207" x1="347.124" y1="839.131" x2="560.169" y2="1394.13" gradientUnits="userSpaceOnUse">
<stop stop-color="#FF1CF7"/>
<stop offset="1" stop-color="#00F0FF"/>
</linearGradient>
<linearGradient id="paint57_linear_48_207" x1="340.971" y1="839.24" x2="521.471" y2="1394.76" gradientUnits="userSpaceOnUse">
<stop stop-color="#FF1CF7"/>
<stop offset="1" stop-color="#00F0FF"/>
</linearGradient>
<linearGradient id="paint58_linear_48_207" x1="334.545" y1="840.237" x2="483.039" y2="1394.43" gradientUnits="userSpaceOnUse">
<stop stop-color="#FF1CF7"/>
<stop offset="1" stop-color="#00F0FF"/>
</linearGradient>
<linearGradient id="paint59_linear_48_207" x1="327.824" y1="842.11" x2="444.953" y2="1393.16" gradientUnits="userSpaceOnUse">
<stop stop-color="#FF1CF7"/>
<stop offset="1" stop-color="#00F0FF"/>
</linearGradient>
<linearGradient id="paint60_linear_48_207" x1="320.745" y1="844.818" x2="407.251" y2="1391" gradientUnits="userSpaceOnUse">
<stop stop-color="#FF1CF7"/>
<stop offset="1" stop-color="#00F0FF"/>
</linearGradient>
<linearGradient id="paint61_linear_48_207" x1="313.263" y1="848.33" x2="369.982" y2="1387.97" gradientUnits="userSpaceOnUse">
<stop stop-color="#FF1CF7"/>
<stop offset="1" stop-color="#00F0FF"/>
</linearGradient>
<linearGradient id="paint62_linear_48_207" x1="305.335" y1="852.609" x2="333.19" y2="1384.12" gradientUnits="userSpaceOnUse">
<stop stop-color="#FF1CF7"/>
<stop offset="1" stop-color="#00F0FF"/>
</linearGradient>
<linearGradient id="paint63_linear_48_207" x1="296.922" y1="857.618" x2="296.922" y2="1379.48" gradientUnits="userSpaceOnUse">
<stop stop-color="#FF1CF7"/>
<stop offset="1" stop-color="#00F0FF"/>
</linearGradient>
<linearGradient id="paint64_linear_48_207" x1="287.986" y1="863.316" x2="261.217" y2="1374.1" gradientUnits="userSpaceOnUse">
<stop stop-color="#FF1CF7"/>
<stop offset="1" stop-color="#00F0FF"/>
</linearGradient>
<linearGradient id="paint65_linear_48_207" x1="278.491" y1="869.662" x2="226.11" y2="1368.03" gradientUnits="userSpaceOnUse">
<stop stop-color="#FF1CF7"/>
<stop offset="1" stop-color="#00F0FF"/>
</linearGradient>
<linearGradient id="paint66_linear_48_207" x1="268.407" y1="876.611" x2="191.638" y2="1361.31" gradientUnits="userSpaceOnUse">
<stop stop-color="#FF1CF7"/>
<stop offset="1" stop-color="#00F0FF"/>
</linearGradient>
<linearGradient id="paint67_linear_48_207" x1="257.705" y1="884.118" x2="157.832" y2="1353.98" gradientUnits="userSpaceOnUse">
<stop stop-color="#FF1CF7"/>
<stop offset="1" stop-color="#00F0FF"/>
</linearGradient>
<linearGradient id="paint68_linear_48_207" x1="246.358" y1="892.137" x2="124.716" y2="1346.11" gradientUnits="userSpaceOnUse">
<stop stop-color="#FF1CF7"/>
<stop offset="1" stop-color="#00F0FF"/>
</linearGradient>
<linearGradient id="paint69_linear_48_207" x1="239.113" y1="905.582" x2="76.5856" y2="1346.57" gradientUnits="userSpaceOnUse">
<stop stop-color="#FF1CF7"/>
<stop offset="1" stop-color="#00F0FF"/>
</linearGradient>
</defs>
</svg>
