<svg width="391" height="388" viewBox="0 0 391 388" fill="none" xmlns="http://www.w3.org/2000/svg">
<path opacity="0.0144928" d="M375.082 456.195C384.006 461.43 396.186 458.452 403.894 449.224L404.258 448.78L447.331 395.107C451.023 390.506 453.206 384.901 453.496 379.305L453.518 378.763L457.323 251.746C457.443 247.738 456.579 243.922 454.819 240.659L454.456 240.014L406.865 159.254C402.522 151.885 394.041 148.579 385.227 150.819L339.256 162.502C330.579 164.707 323.185 171.879 320.278 180.864L320.142 181.294L289.374 281.968C288.16 285.942 287.899 290.024 288.609 293.827L288.764 294.584L315.405 413.863C316.578 419.117 319.577 423.465 323.851 426.13L324.269 426.382L375.082 456.195Z" stroke="url(#paint0_linear_48_10)" stroke-width="4"/>
<path opacity="0.0289855" d="M362.662 455.638C371.408 461.51 383.884 459.244 392.054 450.374L392.439 449.947L436.983 399.594C440.842 395.233 443.245 389.801 443.775 384.272L443.82 383.737L453.137 257.452C453.428 253.507 452.748 249.691 451.164 246.36L450.836 245.701L407.401 162.455C403.401 154.788 395.023 150.942 386.053 152.657L340.756 161.314C331.926 163.002 324.17 169.762 320.876 178.598L320.723 179.021L285.965 277.211C284.602 281.062 284.169 285.072 284.7 288.866L284.819 289.622L305.936 410.09C306.862 415.369 309.635 419.868 313.75 422.792L314.153 423.07L362.662 455.638Z" stroke="url(#paint1_linear_48_10)" stroke-width="4"/>
<path opacity="0.0434783" d="M350.433 454.629C358.96 461.126 371.673 459.611 380.276 451.15L380.683 450.742L426.531 403.756C430.546 399.642 433.161 394.391 433.924 388.935L433.993 388.406L448.706 263.244C449.162 259.362 448.659 255.549 447.247 252.154L446.952 251.481L407.722 166.036C404.075 158.092 395.832 153.708 386.742 154.875L342.204 160.597C333.255 161.747 325.167 168.061 321.497 176.722L321.325 177.136L282.761 272.576C281.254 276.304 280.654 280.241 281.011 284.024L281.095 284.778L296.715 406.044C297.397 411.342 299.944 415.986 303.895 419.161L304.282 419.463L350.433 454.629Z" stroke="url(#paint2_linear_48_10)" stroke-width="4"/>
<path opacity="0.057971" d="M338.412 453.187C346.679 460.293 359.564 459.563 368.569 451.559L368.996 451.173L415.99 407.589C420.152 403.73 422.97 398.665 423.96 393.287L424.051 392.765L444.023 269.109C444.639 265.29 444.309 261.481 443.065 258.025L442.804 257.339L407.81 169.982C404.525 161.783 396.452 156.861 387.28 157.465L343.571 160.344C334.543 160.939 326.156 166.776 322.12 175.234L321.93 175.639L279.749 268.078C278.104 271.684 277.344 275.546 277.531 279.318L277.582 280.071L287.748 401.742C288.192 407.053 290.511 411.834 294.292 415.253L294.663 415.58L338.412 453.187Z" stroke="url(#paint3_linear_48_10)" stroke-width="4"/>
<path opacity="0.0724638" d="M326.621 451.337C334.586 459.029 347.572 459.112 356.941 451.611L357.384 451.247L405.375 411.088C409.675 407.491 412.688 402.617 413.901 397.32L414.013 396.806L439.088 275.03C439.861 271.274 439.699 267.469 438.621 263.954L438.393 263.255L407.652 174.278C404.739 165.845 396.872 160.392 387.66 160.419L344.834 160.545C335.766 160.571 327.116 165.903 322.727 174.133L322.521 174.527L276.926 263.728C275.145 267.212 274.228 271.002 274.25 274.761L274.266 275.513L279.044 397.201C279.253 402.521 281.347 407.434 284.951 411.09L285.304 411.44L326.621 451.337Z" stroke="url(#paint4_linear_48_10)" stroke-width="4"/>
<path opacity="0.0869565" d="M315.075 449.104C322.7 457.354 335.708 458.265 345.4 451.309L345.859 450.972L394.702 414.249C399.13 410.92 402.332 406.243 403.764 401.03L403.897 400.524L433.901 280.991C434.828 277.297 434.83 273.495 433.915 269.922L433.72 269.211L407.237 178.903C404.702 170.261 397.077 164.288 387.869 163.729L345.97 161.187C336.905 160.637 328.032 165.439 323.302 173.415L323.08 173.797L274.283 259.537C272.37 262.899 271.298 266.619 271.157 270.367L271.141 271.117L270.615 392.438C270.592 397.763 272.458 402.802 275.88 406.689L276.216 407.06L315.075 449.104Z" stroke="url(#paint5_linear_48_10)" stroke-width="4"/>
<path opacity="0.101449" d="M303.787 446.512C311.034 455.287 323.986 457.032 333.954 450.661L334.427 450.352L383.986 417.071C388.532 414.017 391.917 409.539 393.564 404.414L393.719 403.916L428.458 286.978C429.538 283.343 429.706 279.543 428.951 275.912L428.787 275.188L406.551 183.841C404.403 175.013 397.057 168.534 387.896 167.385L346.957 162.256C337.939 161.126 328.883 165.377 323.829 173.076L323.592 173.445L271.809 255.518C269.765 258.759 268.54 262.409 268.239 266.147L268.192 266.895L262.466 387.47C262.213 392.796 263.85 397.958 267.085 402.068L267.403 402.462L303.787 446.512Z" stroke="url(#paint6_linear_48_10)" stroke-width="4"/>
<path opacity="0.115942" d="M292.771 443.587C299.605 452.846 312.418 455.422 322.614 449.671L323.097 449.39L373.242 419.549C377.9 416.777 381.462 412.503 383.323 407.469L383.498 406.979L422.764 292.971C423.996 289.394 424.327 285.594 423.732 281.905L423.6 281.169L405.587 189.069C403.829 180.081 396.797 173.116 387.729 171.381L347.776 163.736C338.85 162.028 329.654 165.713 324.292 173.109L324.039 173.464L269.5 251.68C267.325 254.799 265.949 258.381 265.488 262.11L265.408 262.858L254.606 382.313C254.125 387.638 255.532 392.919 258.575 397.247L258.874 397.663L292.771 443.587Z" stroke="url(#paint7_linear_48_10)" stroke-width="4"/>
<path opacity="0.130435" d="M282.033 440.355C288.423 450.055 301.018 453.446 311.389 448.343L311.881 448.094L362.488 421.685C367.248 419.201 370.983 415.134 373.056 410.194L373.251 409.714L416.819 298.955C418.203 295.436 418.697 291.634 418.263 287.885L418.163 287.136L404.334 194.571C402.971 185.447 396.288 178.02 387.358 175.705L348.413 165.607C339.623 163.328 330.329 166.436 324.676 173.508L324.409 173.849L267.346 248.034C265.041 251.031 263.512 254.547 262.891 258.27L262.779 259.016L247.042 376.991C246.333 382.312 247.507 387.708 250.352 392.247L250.633 392.684L282.033 440.355Z" stroke="url(#paint8_linear_48_10)" stroke-width="4"/>
<path opacity="0.144928" d="M271.58 436.839C277.497 446.933 289.797 451.112 300.288 446.68L300.786 446.463L351.737 423.477C356.589 421.288 360.493 417.433 362.778 412.591L362.993 412.119L410.623 304.913C412.162 301.45 412.821 297.644 412.547 293.835L412.48 293.074L402.783 200.323C401.818 191.09 395.516 183.231 386.768 180.349L348.847 167.854C340.236 165.017 330.889 167.54 324.964 174.267L324.685 174.59L265.335 244.59C262.898 247.464 261.216 250.915 260.433 254.631L260.288 255.378L239.778 371.52C238.84 376.835 239.778 382.342 242.42 387.087L242.681 387.544L271.58 436.839Z" stroke="url(#paint9_linear_48_10)" stroke-width="4"/>
<path opacity="0.15942" d="M261.419 433.065C266.84 443.5 278.769 448.431 289.326 444.687L289.829 444.502L341.006 424.928C345.942 423.04 350.01 419.402 352.507 414.661L352.744 414.199L404.182 310.829C405.877 307.423 406.703 303.611 406.593 299.739L406.558 298.965L400.928 206.307C400.362 196.991 394.473 188.731 385.949 185.3L349.072 170.454C340.682 167.077 331.324 169.016 325.145 175.376L324.853 175.682L263.46 241.359C260.891 244.108 259.053 247.493 258.106 251.206L257.928 251.952L232.822 365.923C231.654 371.228 232.352 376.844 234.785 381.787L235.026 382.264L261.419 433.065Z" stroke="url(#paint10_linear_48_10)" stroke-width="4"/>
<path opacity="0.173913" d="M251.552 429.054C256.458 439.776 267.95 445.412 278.519 442.366L279.022 442.214L330.313 426.038C335.322 424.458 339.552 421.044 342.262 416.409L342.52 415.957L397.499 316.685C399.354 313.336 400.353 309.517 400.408 305.581L400.406 304.793L398.766 212.499C398.6 203.126 393.149 194.504 384.89 190.547L349.076 173.389C340.946 169.494 331.62 170.851 325.209 176.826L324.906 177.114L261.715 238.348C259.011 240.969 257.012 244.288 255.898 247.998L255.687 248.745L226.178 360.22C224.777 365.512 225.23 371.232 227.449 376.368L227.669 376.863L251.552 429.054Z" stroke="url(#paint11_linear_48_10)" stroke-width="4"/>
<path opacity="0.188406" d="M241.976 424.827C246.354 435.781 257.349 442.069 267.874 439.723L268.375 439.604L319.667 426.812C324.74 425.546 329.127 422.362 332.05 417.839L332.329 417.397L390.574 322.466C392.593 319.175 393.768 315.348 393.994 311.347L394.027 310.544L396.286 218.879C396.518 209.476 391.529 200.53 383.569 196.074L348.847 176.639C341.012 172.253 331.756 173.036 325.134 178.608L324.821 178.877L260.081 235.568C257.24 238.056 255.077 241.309 253.791 245.016L253.546 245.764L219.842 354.433C218.206 359.708 218.41 365.528 220.407 370.848L220.607 371.362L241.976 424.827Z" stroke="url(#paint12_linear_48_10)" stroke-width="4"/>
<path opacity="0.202899" d="M232.692 420.404C236.533 431.533 246.98 438.41 257.409 436.762L257.906 436.677L309.084 427.251C314.209 426.308 318.751 423.361 321.89 418.957L322.189 418.526L383.413 328.152C385.601 324.922 386.958 321.088 387.359 317.02L387.427 316.203L393.485 225.425C394.113 216.018 389.605 206.79 381.978 201.867L348.379 180.183C340.872 175.338 331.724 175.557 324.913 180.712L324.591 180.96L258.551 233.026C255.57 235.376 253.239 238.559 251.776 242.264L251.495 243.012L213.82 348.584C211.944 353.838 211.892 359.752 213.662 365.25L213.839 365.78L232.692 420.404Z" stroke="url(#paint13_linear_48_10)" stroke-width="4"/>
<path opacity="0.217391" d="M223.698 415.801C226.997 427.048 236.856 434.451 247.139 433.49L247.629 433.439L298.58 427.363C303.745 426.747 308.436 424.046 311.791 419.768L312.111 419.349L376.021 333.728C378.383 330.563 379.929 326.721 380.511 322.587L380.615 321.756L390.359 232.112C391.379 222.73 387.367 213.264 380.1 207.909L347.667 184.004C340.514 178.732 331.51 178.403 324.533 183.123L324.202 183.353L257.112 230.73C253.989 232.935 251.483 236.045 249.837 239.746L249.52 240.493L208.108 342.696C205.99 347.922 205.676 353.923 207.212 359.59L207.367 360.137L223.698 415.801Z" stroke="url(#paint14_linear_48_10)" stroke-width="4"/>
<path opacity="0.231884" d="M214.997 411.035C217.757 422.345 226.994 430.207 237.084 429.918L237.565 429.898L288.17 427.152C293.363 426.87 298.198 424.424 301.771 420.283L302.113 419.877L368.407 339.178C370.949 336.082 372.692 332.236 373.463 328.035L373.604 327.19L386.911 238.919C388.317 229.587 384.812 219.929 377.93 214.176L346.709 188.081C339.934 182.419 331.105 181.559 323.985 185.834L323.647 186.041L255.756 228.688C252.49 230.74 249.804 233.771 247.967 237.465L247.611 238.212L202.711 336.793C200.347 341.984 199.763 348.064 201.058 353.889L201.191 354.451L214.997 411.035Z" stroke="url(#paint15_linear_48_10)" stroke-width="4"/>
<path opacity="0.246377" d="M206.587 406.122C208.813 417.442 217.408 425.694 227.26 426.056L227.731 426.067L277.868 426.626C283.076 426.684 288.05 424.502 291.842 420.508L292.205 420.116L360.578 344.484C363.307 341.465 365.255 337.616 366.221 333.351L366.401 332.493L383.138 245.824C384.925 236.569 381.932 226.763 375.454 220.652L345.503 192.399C339.126 186.383 330.5 185.012 323.261 188.83L322.917 189.015L254.471 226.907C251.06 228.795 248.188 231.74 246.154 235.423L245.757 236.17L197.626 330.897C195.01 336.044 194.15 342.193 195.199 348.166L195.306 348.744L206.587 406.122Z" stroke="url(#paint16_linear_48_10)" stroke-width="4"/>
<path opacity="0.26087" d="M198.463 401.074C200.164 412.354 208.104 420.928 217.681 421.916L218.138 421.957L267.685 425.793C272.894 426.196 277.999 424.289 282.011 420.455L282.395 420.079L352.541 349.63C355.559 346.599 357.766 342.595 358.906 338.091L359.013 337.653L379.039 252.805C381.199 243.653 378.719 233.745 372.659 227.313L344.042 196.939C338.171 190.709 329.947 188.808 322.697 191.944L321.997 192.263L253.241 225.391C249.566 227.162 246.416 230.148 244.159 233.994L243.943 234.369L192.845 325.033C189.975 330.126 188.831 336.332 189.626 342.441L189.709 343.032L198.463 401.074Z" stroke="url(#paint17_linear_48_10)" stroke-width="4"/>
<path opacity="0.275362" d="M190.628 395.908C191.819 407.098 199.098 415.93 208.365 417.514L208.808 417.584L257.638 424.662C262.831 425.415 268.061 423.793 272.291 420.133L272.698 419.772L344.307 354.601C347.53 351.668 349.967 347.671 351.325 343.104L351.453 342.66L374.618 259.837C377.142 250.814 375.173 240.847 369.543 234.133L342.329 201.685C336.874 195.182 328.901 192.826 321.591 195.495L320.885 195.769L252.058 224.147C248.232 225.725 244.876 228.606 242.397 232.434L242.16 232.808L188.367 319.221C185.238 324.248 183.804 330.5 184.34 336.732L184.398 337.335L190.628 395.908Z" stroke="url(#paint18_linear_48_10)" stroke-width="4"/>
<path opacity="0.289855" d="M183.077 390.633C183.773 401.692 190.396 410.721 199.323 412.868L199.75 412.964L247.735 423.243C252.897 424.348 258.242 423.024 262.69 419.554L263.117 419.211L335.882 359.38C339.316 356.557 341.994 352.578 343.578 347.952L343.728 347.502L369.874 266.898C372.751 258.029 371.289 248.047 366.094 241.089L340.361 206.623C335.328 199.883 327.623 197.094 320.278 199.293L319.567 199.521L250.904 223.179C246.929 224.548 243.361 227.313 240.653 231.115L240.393 231.487L184.182 313.49C180.792 318.436 179.062 324.717 179.332 331.057L179.365 331.671L183.077 390.633Z" stroke="url(#paint19_linear_48_10)" stroke-width="4"/>
<path opacity="0.304348" d="M175.81 385.267C176.031 396.155 182.007 405.322 190.57 407.998L190.979 408.12L237.988 421.548C243.101 423.008 248.552 421.993 253.214 418.728L253.664 418.404L327.28 363.955C330.928 361.257 333.855 357.304 335.676 352.628L335.849 352.173L364.812 273.969C368.03 265.278 367.065 255.32 362.309 248.155L338.134 211.736C333.526 204.795 326.107 201.599 318.75 203.324L318.039 203.506L249.767 222.491C245.644 223.637 241.859 226.271 238.913 230.037L238.631 230.404L180.283 307.857C176.629 312.707 174.598 319.003 174.597 325.436L174.604 326.059L175.81 385.267Z" stroke="url(#paint20_linear_48_10)" stroke-width="4"/>
<path opacity="0.318841" d="M168.827 379.82C168.596 390.501 173.939 399.754 182.117 402.923L182.509 403.07L228.41 419.587C233.458 421.403 239.003 420.709 243.876 417.666L244.345 417.365L318.514 368.307C322.38 365.75 325.565 361.839 327.63 357.122L327.827 356.663L359.438 281.025C362.986 272.536 362.505 262.64 358.187 255.303L335.653 217.007C331.47 209.9 324.35 206.32 317.005 207.57L316.294 207.706L248.636 222.085C244.37 222.991 240.365 225.478 237.174 229.193L236.867 229.557L176.664 302.347C172.745 307.085 170.407 313.375 170.132 319.884L170.112 320.515L168.827 379.82Z" stroke="url(#paint21_linear_48_10)" stroke-width="4"/>
<path opacity="0.333333" d="M162.129 374.306C161.467 384.75 166.198 394.043 173.975 397.669L174.348 397.837L219.011 417.374C223.975 419.545 229.602 419.183 234.679 416.382L235.169 416.104L309.595 372.427C313.682 370.028 317.134 366.173 319.453 361.427L319.674 360.964L353.757 288.046C357.621 279.78 357.61 269.983 353.728 262.507L332.915 222.425C329.154 215.183 322.344 211.244 315.035 212.02L314.326 212.109L247.495 221.962C243.093 222.611 238.863 224.933 235.42 228.584L235.089 228.942L173.312 296.98C169.129 301.587 166.482 307.853 165.929 314.42L165.882 315.057L162.129 374.306Z" stroke="url(#paint22_linear_48_10)" stroke-width="4"/>
<path opacity="0.347826" d="M155.711 368.739C154.643 378.92 158.784 388.211 166.149 392.256L166.501 392.445L209.798 414.922C214.66 417.446 220.354 417.428 225.627 414.888L226.136 414.634L300.537 376.298C304.845 374.079 308.57 370.297 311.149 365.536L311.396 365.072L347.774 295.011C351.939 286.99 352.381 277.323 348.93 269.741L329.918 227.972C326.574 220.627 320.083 216.35 312.832 216.654L312.128 216.698L246.329 222.124C241.797 222.497 237.344 224.635 233.643 228.203L233.286 228.553L170.214 291.779C165.768 296.236 162.81 302.454 161.977 309.061L161.903 309.701L155.711 368.739Z" stroke="url(#paint23_linear_48_10)" stroke-width="4"/>
<path opacity="0.362319" d="M149.576 363.131C148.126 373.029 151.701 382.284 158.647 386.712L158.98 386.918L200.781 412.245C205.523 415.118 211.268 415.453 216.728 413.194L217.256 412.967L291.358 379.911C295.886 377.891 299.888 374.204 302.735 369.443L303.007 368.979L341.499 301.898C345.949 294.142 346.827 284.636 343.798 276.976L326.664 233.636C323.73 226.215 317.565 221.624 310.395 221.46L309.698 221.459L245.124 222.567C240.475 222.647 235.798 224.579 231.836 228.046L231.455 228.387L167.361 286.76C162.656 291.045 159.385 297.195 158.271 303.821L158.17 304.464L149.576 363.131Z" stroke="url(#paint24_linear_48_10)" stroke-width="4"/>
<path opacity="0.376812" d="M143.718 357.501C141.91 367.098 144.946 376.286 151.468 381.061L151.782 381.285L191.963 409.358C196.567 412.575 202.348 413.274 207.982 411.315L208.527 411.117L282.068 383.254C286.811 381.457 291.096 377.887 294.215 373.145L294.513 372.682L334.937 308.69C339.657 301.218 340.949 291.899 338.334 284.186L323.15 239.401C320.617 231.93 314.784 227.047 307.716 226.422L307.029 226.374L243.864 223.292C239.109 223.061 234.213 224.764 229.987 228.109L229.579 228.437L164.734 281.946C159.775 286.038 156.196 292.093 154.799 298.719L154.671 299.362L143.718 357.501Z" stroke="url(#paint25_linear_48_10)" stroke-width="4"/>
<path opacity="0.391304" d="M138.138 351.862C135.996 361.145 138.52 370.24 144.617 375.33L144.911 375.569L183.353 406.275C187.801 409.828 193.597 410.9 199.392 409.261L199.954 409.094L272.687 386.319C277.639 384.768 282.206 381.339 285.601 376.636L285.925 376.177L328.097 315.366C333.07 308.196 334.758 299.085 332.547 291.345L319.379 245.253C317.237 237.755 311.738 232.6 304.795 231.52L304.119 231.429L242.536 224.294C237.691 223.733 232.581 225.183 228.091 228.383L227.658 228.699L162.319 277.353C157.114 281.228 153.229 287.163 151.551 293.769L151.396 294.41L138.138 351.862Z" stroke="url(#paint26_linear_48_10)" stroke-width="4"/>
<path opacity="0.405797" d="M132.837 346.232C130.423 355.049 132.358 363.89 137.83 369.289L138.37 369.801L174.96 403.015C179.235 406.895 185.027 408.347 190.966 407.047L191.541 406.913L263.234 389.098C268.386 387.818 273.233 384.557 276.905 379.915L277.257 379.462L320.994 321.91C326.203 315.056 328.265 306.176 326.447 298.43L315.354 251.178C313.592 243.675 308.431 238.268 301.631 236.742L300.968 236.607L241.128 225.57C236.21 224.663 230.896 225.835 226.146 228.866L225.688 229.165L160.102 272.998C154.663 276.633 150.478 282.422 148.522 288.987L148.34 289.625L132.837 346.232Z" stroke="url(#paint27_linear_48_10)" stroke-width="4"/>
<path opacity="0.42029" d="M127.809 340.625C125.109 349.117 126.595 357.829 131.654 363.466L132.154 364.002L166.784 399.588C170.869 403.786 176.637 405.624 182.7 404.682L183.287 404.581L253.726 391.583C259.065 390.598 264.187 387.534 268.135 382.977L268.513 382.532L313.634 328.302C319.061 321.78 321.478 313.146 320.041 305.413L311.072 257.161C309.68 249.669 304.857 244.03 298.22 242.069L297.572 241.89L239.624 227.109C234.653 225.842 229.148 226.713 224.143 229.547L223.66 229.828L158.066 268.894C152.404 272.266 147.928 277.882 145.697 284.385L145.488 285.017L127.809 340.625Z" stroke="url(#paint28_linear_48_10)" stroke-width="4"/>
<path opacity="0.434783" d="M123.049 335.057C120.084 343.221 121.145 351.795 125.797 357.644L126.258 358.201L158.827 396.014C162.705 400.517 168.427 402.745 174.594 402.177L175.192 402.113L244.181 393.772C249.689 393.106 255.077 390.267 259.296 385.822L259.701 385.386L306.028 334.528C311.656 328.349 314.407 319.976 313.339 312.272L306.534 263.187C305.499 255.724 301.017 249.868 294.561 247.482L293.93 247.263L238.008 228.907C233.006 227.266 227.326 227.81 222.077 230.422L221.571 230.68L156.191 265.054C150.321 268.14 145.564 273.558 143.062 279.979L142.827 280.603L123.049 335.057Z" stroke="url(#paint29_linear_48_10)" stroke-width="4"/>
<path opacity="0.449275" d="M118.558 329.546C115.345 337.382 116.003 345.809 120.256 351.847L120.679 352.424L151.096 392.306C154.753 397.101 160.405 399.721 166.652 399.543L167.259 399.517L234.62 395.661C240.278 395.337 245.918 392.753 250.403 388.445L250.833 388.023L298.19 340.568C304.002 334.744 307.066 326.644 306.356 318.984L301.744 269.242C301.056 261.821 296.914 255.765 290.656 252.967L290.044 252.707L236.27 230.953C231.263 228.928 225.429 229.122 219.949 231.483L219.419 231.718L154.461 261.491C148.401 264.269 143.376 269.462 140.609 275.781L140.349 276.395L118.558 329.546Z" stroke="url(#paint30_linear_48_10)" stroke-width="4"/>
<path opacity="0.463768" d="M114.323 324.108C110.879 331.618 111.156 339.894 115.019 346.1L115.403 346.694L143.586 388.48C147.007 393.552 152.565 396.565 158.867 396.789L159.479 396.802L225.056 397.25C230.84 397.29 236.716 394.99 241.456 390.847L241.911 390.441L290.126 346.41C296.105 340.951 299.465 333.132 299.102 325.527L296.7 275.31C296.348 267.943 292.545 261.702 286.5 258.504L285.908 258.204L234.393 233.235C229.407 230.818 223.442 230.64 217.748 232.724L217.198 232.933L152.852 258.212C146.622 260.659 141.346 265.604 138.321 271.8L138.035 272.403L114.323 324.108Z" stroke="url(#paint31_linear_48_10)" stroke-width="4"/>
<path opacity="0.478261" d="M110.346 318.763C106.685 325.951 106.6 334.074 110.081 340.431L110.428 341.041L136.304 384.555C139.476 389.889 144.917 393.292 151.247 393.929L151.862 393.983L215.516 398.545C221.398 398.966 227.487 396.979 232.471 393.029L232.95 392.64L281.856 352.042C287.984 346.955 291.623 339.424 291.596 331.885L291.41 281.38C291.383 274.076 287.918 267.664 282.101 264.081L281.531 263.743L232.373 235.744C227.436 232.932 221.368 232.363 215.481 234.144L214.912 234.323L151.352 255.23C144.975 257.327 139.463 261.998 136.187 268.053L135.878 268.644L110.346 318.763Z" stroke="url(#paint32_linear_48_10)" stroke-width="4"/>
<path opacity="0.492754" d="M106.619 313.524C102.754 320.393 102.323 328.364 105.431 334.856L105.742 335.48L129.25 380.541C132.16 386.12 137.458 389.91 143.787 390.967L144.404 391.061L206.017 399.544C211.967 400.363 218.242 398.716 223.453 394.986L223.954 394.618L273.392 357.446C279.653 352.738 283.554 345.5 283.853 338.035L285.875 287.432C286.164 280.201 283.037 273.63 277.462 269.675L276.915 269.301L230.196 238.462C225.338 235.256 219.198 234.279 213.143 235.731L212.558 235.88L149.94 252.545C143.441 254.274 137.713 258.65 134.196 264.546L133.863 265.121L106.619 313.524Z" stroke="url(#paint33_linear_48_10)" stroke-width="4"/>
<path opacity="0.507246" d="M103.133 308.411C99.0725 314.966 98.3109 322.787 101.053 329.403L101.329 330.039L122.418 376.457C125.056 382.263 130.187 386.432 136.486 387.914L137.099 388.048L196.571 400.256C202.556 401.485 208.989 400.203 214.407 396.718L214.928 396.373L264.742 362.613C271.121 358.29 275.269 351.347 275.885 343.963L280.095 293.456C280.692 286.303 277.902 279.583 272.58 275.272L272.058 274.863L227.85 241.378C223.101 237.781 216.924 236.383 210.731 237.486L210.131 237.601L148.595 250.163C142 251.509 136.079 255.569 132.329 261.288L131.973 261.847L103.133 308.411Z" stroke="url(#paint34_linear_48_10)" stroke-width="4"/>
<path opacity="0.521739" d="M99.8835 303.44C95.638 309.687 94.5569 317.362 96.942 324.089L97.184 324.737L115.815 372.317C118.17 378.333 123.11 382.869 129.349 384.777L129.956 384.953L187.203 400.691C193.188 402.337 199.744 401.439 205.348 398.224L205.887 397.906L255.929 367.531C262.41 363.597 266.791 356.952 267.716 349.655L274.081 299.436C274.977 292.366 272.525 285.511 267.468 280.858L266.971 280.413L225.335 244.477C220.725 240.497 214.548 238.671 208.247 239.405L207.637 239.484L147.304 248.088C140.643 249.038 134.549 252.764 130.578 258.289L130.2 258.829L99.8835 303.44Z" stroke="url(#paint35_linear_48_10)" stroke-width="4"/>
<path opacity="0.536232" d="M96.856 298.626C92.4315 304.571 91.0408 312.103 93.0754 318.934L93.2838 319.593L109.43 368.134C111.494 374.34 116.219 379.233 122.366 381.564L122.965 381.782L177.922 400.857C183.868 402.921 190.51 402.425 196.275 399.504L196.83 399.214L246.957 372.188C253.525 368.646 258.128 362.302 259.356 355.095L267.83 305.356C269.019 298.375 266.904 291.392 262.123 286.412L261.652 285.936L222.637 247.74C218.195 243.392 212.057 241.134 205.684 241.484L205.067 241.525L146.044 246.319C139.345 246.863 133.103 250.238 128.92 255.554L128.521 256.075L96.856 298.626Z" stroke="url(#paint36_linear_48_10)" stroke-width="4"/>
<path opacity="0.550725" d="M94.0452 293.985C89.4468 299.634 87.7549 307.029 89.4449 313.956L89.619 314.624L103.267 363.924C105.033 370.301 109.519 375.535 115.544 378.283L116.132 378.542L168.744 400.766C174.615 403.246 181.304 403.163 187.204 400.556L187.772 400.296L237.847 376.575C244.489 373.429 249.302 367.384 250.827 360.273L261.35 311.203C262.828 304.314 261.051 297.212 256.554 291.919L256.111 291.413L219.757 251.154C215.512 246.453 209.453 243.766 203.043 243.721L202.422 243.725L144.802 244.855C138.096 244.987 131.73 247.999 127.347 253.09L126.929 253.59L94.0452 293.985Z" stroke="url(#paint37_linear_48_10)" stroke-width="4"/>
<path opacity="0.565217" d="M91.4366 289.535C86.6685 294.891 84.6802 302.153 86.0292 309.169L86.1701 309.848L97.32 359.7C98.7799 366.228 103.006 371.787 108.88 374.942L109.454 375.24L159.677 400.43C165.435 403.318 172.132 403.655 178.138 401.379L178.717 401.15L228.61 380.684C235.312 377.935 240.328 372.189 242.146 365.177L254.647 316.961C256.408 310.168 254.97 302.956 250.767 297.367L250.351 296.831L216.687 254.701C212.665 249.668 206.724 246.561 200.317 246.115L199.695 246.08L143.56 243.694C136.877 243.41 130.412 246.049 125.841 250.903L125.404 251.38L91.4366 289.535Z" stroke="url(#paint38_linear_48_10)" stroke-width="4"/>
<path opacity="0.57971" d="M89.0249 285.289C84.0891 290.356 81.8071 297.49 82.8186 304.591L82.9263 305.278L91.588 355.477C92.737 362.136 96.6833 367.998 102.378 371.548L102.934 371.883L150.736 399.861C156.345 403.144 163.009 403.903 169.092 401.971L169.678 401.776L219.267 384.506C226.016 382.155 231.224 376.709 233.332 369.8L247.727 322.616C249.769 315.923 248.671 308.61 244.771 302.739L244.385 302.175L213.43 258.367C209.657 253.027 203.873 249.511 197.505 248.662L196.886 248.589L142.305 242.832C135.676 242.133 129.138 244.391 124.39 248.994L123.936 249.447L89.0249 285.289Z" stroke="url(#paint39_linear_48_10)" stroke-width="4"/>
<path opacity="0.594203" d="M86.7947 281.261C81.693 286.042 79.1175 293.051 79.7926 300.233L79.8684 300.928L86.0673 351.267C86.9008 358.036 90.5474 364.18 96.0357 368.107L96.5726 368.479L141.927 399.074C147.352 402.733 153.942 403.91 160.072 402.334L160.664 402.172L209.829 388.033C216.612 386.083 222.007 380.937 224.403 374.135L240.597 328.154C242.918 321.564 242.163 314.158 238.573 308.021L238.216 307.43L209.983 262.134C206.481 256.515 200.891 252.61 194.599 251.362L193.988 251.25L141.024 242.265C134.477 241.154 127.89 243.025 122.978 247.366L122.509 247.795L86.7947 281.261Z" stroke="url(#paint40_linear_48_10)" stroke-width="4"/>
<path opacity="0.608696" d="M84.7301 277.467C79.4634 281.962 76.5954 288.847 76.9339 296.105L76.9763 296.808L80.7487 347.084C81.2633 353.943 84.5947 360.345 89.8523 364.629L90.3667 365.038L133.252 398.081C138.461 402.095 144.94 403.679 151.088 402.464L151.682 402.339L200.31 391.261C207.114 389.711 212.69 384.867 215.373 378.176L233.26 333.56C235.858 327.078 235.45 319.588 232.177 313.199L231.852 312.584L206.345 265.99C203.132 260.121 197.769 255.85 191.59 254.212L190.99 254.062L139.699 241.987C133.263 240.472 126.653 241.954 121.589 246.023L121.104 246.424L84.7301 277.467Z" stroke="url(#paint41_linear_48_10)" stroke-width="4"/>
<path opacity="0.623188" d="M82.8237 273.918C77.3922 278.126 74.2277 284.889 74.2281 292.218L74.2382 292.929L75.6345 342.942C75.8279 349.869 78.8285 356.504 83.8332 361.125L84.3238 361.566L124.721 396.893C129.686 401.236 136.018 403.215 142.155 402.366L142.748 402.275L190.731 394.185C197.544 393.037 203.296 388.496 206.265 381.921L225.73 338.821C228.606 332.451 228.549 324.888 225.601 318.263L225.307 317.624L202.521 269.921C199.613 263.835 194.509 259.225 188.475 257.209L187.888 257.022L138.324 241.994C132.026 240.084 125.416 241.177 120.213 244.962L119.714 245.337L82.8237 273.918Z" stroke="url(#paint42_linear_48_10)" stroke-width="4"/>
<path opacity="0.637681" d="M81.058 270.627C75.4621 274.546 71.998 281.185 71.6574 288.58L71.6344 289.298L70.7149 338.851C70.5856 345.826 73.244 352.667 77.9757 357.6L78.4393 358.071L116.335 395.524C121.032 400.166 127.184 402.524 133.281 402.039L133.871 401.983L181.105 396.801C187.915 396.054 193.837 391.818 197.093 385.366L218.012 343.921C221.167 337.67 221.465 330.043 218.849 323.199L218.587 322.539L198.511 273.914C195.921 267.643 191.102 262.725 185.245 260.347L184.675 260.125L136.884 242.276C130.75 239.985 124.161 240.691 118.833 244.184L118.321 244.531L81.058 270.627Z" stroke="url(#paint43_linear_48_10)" stroke-width="4"/>
<path opacity="0.652174" d="M79.4192 267.606C73.659 271.232 69.8913 277.744 69.2057 285.198L69.1488 285.922L65.9873 334.826C65.5347 341.828 67.8394 348.848 72.281 354.067L72.7173 354.567L108.096 393.985C112.504 398.896 118.448 401.609 124.479 401.486L125.063 401.465L171.45 399.105C178.244 398.76 184.331 394.835 187.876 388.514L210.118 348.848C213.552 342.724 214.21 335.045 211.932 327.998L211.704 327.318L194.319 277.957C192.057 271.535 187.544 266.341 181.89 263.622L181.339 263.366L135.372 242.83C129.423 240.172 122.877 240.495 117.436 243.688L116.914 244.006L79.4192 267.606Z" stroke="url(#paint44_linear_48_10)" stroke-width="4"/>
<path opacity="0.666667" d="M77.8903 264.864C71.9667 268.19 67.889 274.57 66.8532 282.076L66.7625 282.805L61.4429 330.878C60.6675 337.885 62.611 345.055 66.7484 350.535L67.1553 351.061L100.006 392.285C104.108 397.433 109.818 400.478 115.759 400.71L116.335 400.724L161.778 401.098C168.545 401.154 174.792 397.543 178.626 391.361L202.054 353.588C205.768 347.599 206.793 339.883 204.861 332.65L204.665 331.952L189.946 282.041C188.017 275.5 183.829 270.064 178.402 267.025L177.873 266.739L133.775 243.647C128.032 240.64 121.55 240.584 116.009 243.471L115.476 243.759L77.8903 264.864Z" stroke="url(#paint45_linear_48_10)" stroke-width="4"/>
<path opacity="0.681159" d="M76.4566 262.41C70.3708 265.429 65.9777 271.668 64.5855 279.217L64.4605 279.951L57.0764 327.021C55.9796 334.012 57.5558 341.303 61.3776 347.017L61.7544 347.565L92.064 390.433C95.8479 395.785 101.306 399.139 107.135 399.716L107.7 399.763L152.109 402.778C158.834 403.235 165.238 399.945 169.362 393.914L193.834 358.129C197.829 352.287 199.225 344.546 197.645 337.146L197.482 336.431L185.396 286.152C183.803 279.527 179.953 273.885 174.772 270.549L174.267 270.233L132.087 244.721C126.567 241.383 120.166 240.957 114.539 243.529L113.998 243.787L76.4566 262.41Z" stroke="url(#paint46_linear_48_10)" stroke-width="4"/>
<path opacity="0.695652" d="M75.104 260.251C68.858 262.954 64.1433 269.043 62.3886 276.623L62.2283 277.361L52.8823 323.263C51.4665 330.216 52.6728 337.601 56.17 343.52L56.5153 344.089L84.2764 388.439C87.734 393.963 92.9214 397.598 98.6189 398.51L99.1717 398.588L142.459 404.145C149.13 405.002 155.684 402.039 160.1 396.172L185.471 362.457C189.749 356.774 191.52 349.026 190.297 341.478L190.169 340.747L180.675 290.284C179.419 283.605 175.915 277.789 170.997 274.183L170.517 273.841L130.299 246.043C125.019 242.393 118.716 241.605 113.016 243.858L112.467 244.085L75.104 260.251Z" stroke="url(#paint47_linear_48_10)" stroke-width="4"/>
<path opacity="0.710145" d="M73.8116 258.397C67.4092 260.772 62.3677 266.698 60.2436 274.294L60.0473 275.035L48.8511 319.617C47.1195 326.512 47.9537 333.961 51.1201 340.06L51.4345 340.645L76.6387 386.31C79.7654 391.975 84.6711 395.864 90.2198 397.097L90.7583 397.209L132.842 405.205C139.445 406.459 146.145 403.832 150.852 398.142L176.975 366.565C181.535 361.053 183.688 353.316 182.827 345.639L182.734 344.895L175.786 294.428C174.863 287.726 171.71 281.769 167.065 277.917L166.612 277.551L128.402 247.607C123.374 243.667 117.186 242.526 111.425 244.454L110.869 244.65L73.8116 258.397Z" stroke="url(#paint48_linear_48_10)" stroke-width="4"/>
<path opacity="0.724638" d="M72.5614 256.851C66.0074 258.887 60.6353 264.633 58.1352 272.231L57.9022 272.972L44.9745 316.094C42.9313 322.91 43.3941 330.395 46.2255 336.645L46.5068 337.246L69.1513 384.055C71.9457 389.831 76.561 393.947 81.9459 395.49L82.4697 395.631L123.273 405.959C129.794 407.609 136.631 405.326 141.629 399.83L168.358 370.437C173.2 365.113 175.739 357.408 175.245 349.623L175.187 348.87L170.728 298.576C170.134 291.878 167.333 285.812 162.971 281.74L162.544 281.353L126.386 249.404C121.621 245.194 115.56 243.712 109.752 245.311L109.192 245.475L72.5614 256.851Z" stroke="url(#paint49_linear_48_10)" stroke-width="4"/>
<path opacity="0.73913" d="M71.3388 255.617C64.6399 257.299 58.9328 262.847 56.0507 270.428L55.7809 271.168L41.2463 312.702C38.8962 319.418 38.9901 326.912 41.485 333.289L41.7337 333.903L61.8195 381.679C64.2832 387.539 68.6032 391.857 73.8126 393.693L74.3195 393.863L113.768 406.41C120.195 408.454 127.162 406.527 132.45 401.241L159.637 374.068C164.759 368.947 167.686 361.295 167.563 353.424L167.541 352.662L165.509 302.717C165.237 296.05 162.786 289.906 158.712 285.637L158.313 285.231L124.248 251.427C119.754 246.968 113.834 245.155 107.992 246.421L107.427 246.553L71.3388 255.617Z" stroke="url(#paint50_linear_48_10)" stroke-width="4"/>
<path opacity="0.753623" d="M70.1267 254.697C63.2914 256.013 57.247 261.341 53.9776 268.883L53.6702 269.62L37.6585 309.452C35.0075 316.047 34.7369 323.524 36.8951 330.003L37.1112 330.626L54.6456 379.189C56.7824 385.108 60.8043 389.606 65.8285 391.721L66.3184 391.918L104.344 406.567C110.662 409.001 117.751 407.438 123.325 402.383L150.826 377.445C156.226 372.548 159.544 364.975 159.795 357.041L159.809 356.272L160.132 306.849C160.176 300.236 158.07 294.04 154.286 289.598L153.914 289.174L121.979 253.669C117.763 248.982 111.994 246.846 106.132 247.777L105.564 247.876L70.1267 254.697Z" stroke="url(#paint51_linear_48_10)" stroke-width="4"/>
<path opacity="0.768116" d="M68.9014 254.092C61.9405 255.026 55.5601 260.109 51.8993 267.589L51.5538 268.321L34.1973 306.352C31.2522 312.806 30.6225 320.24 32.4459 326.796L32.6296 327.428L47.6255 376.594C49.4414 382.548 53.1665 387.203 57.998 389.582L58.469 389.805L95.01 406.434C101.204 409.253 108.404 408.068 114.261 403.265L141.938 380.564C147.612 375.91 151.32 368.439 151.947 360.466L151.997 359.693L154.598 310.959C154.947 304.421 153.18 298.197 149.686 293.605L149.341 293.165L119.57 256.119C115.636 251.223 110.029 248.777 104.158 249.37L103.589 249.437L68.9014 254.092Z" stroke="url(#paint52_linear_48_10)" stroke-width="4"/>
<path opacity="0.782609" d="M67.6504 253.801C60.5762 254.339 53.8623 259.152 49.8081 266.543L49.4245 267.266L30.8602 303.41C27.6281 309.703 26.6449 317.071 28.1364 323.683L28.2884 324.321L40.7665 373.901C42.2686 379.87 45.699 384.661 50.3316 387.29L50.7843 387.537L85.7849 406.023C91.8415 409.222 99.1407 408.425 105.273 403.895L132.992 383.417C138.933 379.028 143.03 371.688 144.034 363.7L144.121 362.926L148.913 315.043C149.557 308.6 148.12 302.37 144.914 297.646L144.598 297.194L117.019 258.771C113.368 253.685 107.931 250.939 102.065 251.193L101.496 251.227L67.6504 253.801Z" stroke="url(#paint53_linear_48_10)" stroke-width="4"/>
<path opacity="0.797101" d="M66.3522 253.821C59.1804 253.949 52.1403 258.462 47.6926 265.733L47.2705 266.446L27.6328 300.633C24.1222 306.745 22.7947 314.023 23.9586 320.671L24.0786 321.313L34.0696 371.116C35.2662 377.081 38.4055 381.993 42.8358 384.856L43.2689 385.128L76.6793 405.34C82.5839 408.912 89.9679 408.515 96.3666 404.282L124.003 385.997C130.202 381.896 134.686 374.717 136.067 366.741L136.19 365.968L143.079 319.093C144.009 312.762 142.893 306.544 139.971 301.707L139.682 301.243L114.315 261.612C110.951 256.356 105.691 253.321 99.8419 253.234L99.2741 253.235L66.3522 253.821Z" stroke="url(#paint54_linear_48_10)" stroke-width="4"/>
<path opacity="0.811594" d="M64.9879 254.15C57.7361 253.853 50.3788 258.036 45.5403 265.157L45.0805 265.855L24.5058 298.031C20.7254 303.943 19.0615 311.111 19.9029 317.775L19.9917 318.419L27.534 368.253C28.434 374.2 31.2888 379.213 35.5149 382.299L35.9282 382.592L67.7043 404.399C73.4425 408.337 80.8958 408.352 87.5495 404.44L114.988 388.306C121.433 384.516 126.296 377.529 128.052 369.591L128.213 368.82L137.096 323.105C138.302 316.899 137.498 310.711 134.855 305.776L134.593 305.302L111.454 264.639C108.375 259.229 103.299 255.915 97.4794 255.488L96.9141 255.455L64.9879 254.15Z" stroke="url(#paint55_linear_48_10)" stroke-width="4"/>
<path opacity="0.826087" d="M63.5407 254.777C56.2293 254.044 48.5706 257.864 43.3471 264.8L42.8497 265.481L21.4714 295.606C17.431 301.299 15.4394 308.335 15.9638 314.999L16.0225 315.643L21.1652 365.313C21.7777 371.228 24.3531 376.331 28.3737 379.627L28.767 379.941L58.8733 403.206C64.4311 407.501 71.9358 407.94 78.8303 404.374L105.964 390.336C112.643 386.881 117.876 380.118 120.005 372.244L120.201 371.479L130.973 327.066C132.445 320.998 131.94 314.852 129.571 309.834L129.335 309.352L108.429 267.838C105.635 262.29 100.749 258.705 94.9712 257.937L94.41 257.872L63.5407 254.777Z" stroke="url(#paint56_linear_48_10)" stroke-width="4"/>
<path opacity="0.84058" d="M61.9902 255.693C54.6423 254.513 46.7014 257.939 41.1024 264.654L40.5678 265.313L18.5153 293.362C14.2253 298.819 11.9163 305.705 12.1299 312.351L12.1587 312.994L14.9619 362.306C15.2959 368.179 17.5986 373.361 21.4141 376.857L21.7876 377.19L50.1944 401.775C55.5579 406.417 63.0945 407.29 70.2127 404.093L96.9473 392.088C103.843 388.991 109.434 382.485 111.93 374.704L112.162 373.947L124.707 330.971C126.435 325.052 126.221 318.96 124.119 313.87L123.909 313.38L105.234 271.197C102.723 265.525 98.0318 261.679 92.3076 260.572L91.7509 260.474L61.9902 255.693Z" stroke="url(#paint57_linear_48_10)" stroke-width="4"/>
<path opacity="0.855072" d="M60.3193 256.889C52.96 255.254 44.7608 258.252 38.7992 264.708L38.2296 265.344L15.6268 291.304C11.0979 296.506 8.48149 303.225 8.39046 309.841L8.3902 310.48L8.92494 359.241C8.98888 365.063 11.0252 370.315 14.6364 374.001L14.991 374.353L41.6751 400.119C46.8305 405.097 54.3776 406.414 61.6987 403.612L87.9546 393.563C95.0468 390.848 100.981 384.631 103.839 376.971L104.105 376.225L118.303 334.812C120.278 329.05 120.345 323.021 118.503 317.868L118.319 317.372L101.86 274.706C99.6299 268.925 95.139 264.827 89.4805 263.38L88.9295 263.249L60.3193 256.889Z" stroke="url(#paint58_linear_48_10)" stroke-width="4"/>
<path opacity="0.869565" d="M58.5156 258.355C51.1729 256.258 42.7461 258.799 36.4399 264.958L35.8361 265.565L12.8009 289.44C8.04484 294.37 5.13242 300.905 4.74293 307.476L4.71253 308.112L3.06179 356.131C2.8636 361.896 4.64065 367.209 8.04907 371.079L8.38412 371.449L33.3328 398.256C38.2668 403.557 45.7991 405.323 53.2992 402.939L79.009 394.766C86.2747 392.456 92.5331 386.562 95.7441 379.051L96.0451 378.32L111.769 338.584C113.983 332.988 114.322 327.028 112.734 321.82L112.574 321.318L98.31 278.358C96.3578 272.479 92.0716 268.136 86.4905 266.352L85.9459 266.188L58.5156 258.355Z" stroke="url(#paint59_linear_48_10)" stroke-width="4"/>
<path opacity="0.884058" d="M56.5607 260.074C49.2642 257.514 40.6446 259.567 34.016 265.39L33.3806 265.965L10.0242 287.77C5.05325 292.411 1.85443 298.747 1.17251 305.262L1.11379 305.893L-2.62971 352.984C-3.08313 358.687 -1.55972 364.058 1.6485 368.104L1.96432 368.49L25.1699 396.195C29.8696 401.806 37.3612 404.029 45.0131 402.085L70.124 395.703C77.5368 393.819 84.0971 388.278 87.6518 380.946L87.9865 380.231L105.105 342.278C107.551 336.854 108.154 330.968 106.814 325.711L106.679 325.204L94.5753 282.14C92.8984 276.174 88.8204 271.593 83.3276 269.474L82.792 269.277L56.5607 260.074Z" stroke="url(#paint60_linear_48_10)" stroke-width="4"/>
<path opacity="0.898551" d="M54.4391 262.028C47.2209 259.008 38.4502 260.547 31.5263 265.995L30.8619 266.535L7.28542 286.295C2.11234 290.631 -1.36333 296.754 -2.33203 303.202L-2.4183 303.827L-8.14988 349.808C-8.85263 355.446 -7.57628 360.871 -4.56652 365.089L-4.26935 365.494L17.1935 393.954C21.6466 399.859 29.0683 402.541 36.8412 401.056L61.3181 396.378C68.8479 394.938 75.6831 389.784 79.5693 382.659L79.9368 381.963L98.3133 345.888C100.986 340.641 101.847 334.831 100.749 329.528L100.637 329.017L90.651 286.039C89.2465 279.995 85.3811 275.182 79.9884 272.731L79.4614 272.501L54.4391 262.028Z" stroke="url(#paint61_linear_48_10)" stroke-width="4"/>
<path opacity="0.913043" d="M52.1427 264.202C45.0356 260.726 36.1588 261.729 28.9713 266.767L28.2803 267.267L4.57652 285.019C-0.785032 289.034 -4.5267 294.93 -5.77708 301.3L-5.89012 301.919L-13.4936 346.616C-14.4411 352.186 -13.4083 357.665 -10.5946 362.052L-10.3168 362.473L9.41359 391.549C13.6084 397.731 20.9301 400.872 28.7905 399.862L52.6084 396.802C60.2231 395.824 67.3041 391.083 71.508 384.193L71.9068 383.52L91.4037 349.405C94.2977 344.341 95.411 338.61 94.5509 333.262L94.4618 332.746L86.5367 290.044C85.402 283.93 81.7529 278.891 76.4712 276.11L75.9556 275.848L52.1427 264.202Z" stroke="url(#paint62_linear_48_10)" stroke-width="4"/>
<path opacity="0.927536" d="M49.6547 266.575C42.6923 262.655 33.7596 263.106 26.3447 267.7L25.6315 268.157L1.88241 283.941C-3.65367 287.62 -7.6518 293.277 -9.17901 299.562L-9.31904 300.171L-18.6662 343.419C-19.8552 348.92 -19.062 354.452 -16.4426 359.007L-16.1831 359.445L1.82953 388.996C5.75541 395.437 12.9455 399.034 20.8568 398.513L44.0068 396.988C51.6709 396.483 58.9651 392.183 63.4709 385.557L63.8982 384.908L84.3734 352.823C87.485 347.947 88.8476 342.295 88.2217 336.904L88.1541 336.383L82.2238 294.142C81.3565 287.966 77.9288 282.707 72.7694 279.599L72.2651 279.305L49.6547 266.575Z" stroke="url(#paint63_linear_48_10)" stroke-width="4"/>
<path opacity="0.942029" d="M46.9708 269.126C40.1875 264.778 31.253 264.668 23.6516 268.785L22.9202 269.196L-0.802286 283.06C-6.49792 286.389 -10.7419 291.794 -12.5419 297.985L-12.7083 298.586L-23.6622 340.226C-25.0908 345.657 -24.5348 351.245 -22.1081 355.968L-21.8678 356.423L-5.54974 386.312C-1.90275 392.992 5.1235 397.034 13.0466 397.011L35.5328 396.946C43.2085 396.923 50.6783 393.087 55.4677 386.752L55.9226 386.132L77.2334 356.133C80.5602 351.449 82.1682 345.878 81.774 340.442L81.73 339.917L77.7152 298.322C77.1136 292.089 73.9114 286.613 68.885 283.183L68.3927 282.858L46.9708 269.126Z" stroke="url(#paint64_linear_48_10)" stroke-width="4"/>
<path opacity="0.956522" d="M44.0807 271.834C37.5099 267.079 28.6303 266.405 20.8867 270.019L20.1413 270.382L-3.49182 282.376C-9.33129 285.34 -13.8114 290.483 -15.8808 296.57L-16.0727 297.162L-28.4846 337.048C-30.153 342.41 -29.8344 348.058 -27.5997 352.95L-27.3775 353.422L-12.724 383.512C-9.36474 390.41 -2.53503 394.887 5.35981 395.366L27.1937 396.691C34.8419 397.155 42.45 393.803 47.5032 387.786L47.9847 387.195L69.9835 359.329C73.5243 354.844 75.3786 349.352 75.2151 343.869L75.1929 343.338L73.0057 302.567C72.6684 296.283 69.6964 290.596 64.814 286.848L64.3356 286.492L44.0807 271.834Z" stroke="url(#paint65_linear_48_10)" stroke-width="4"/>
<path opacity="0.971014" d="M40.9838 274.678C34.6583 269.542 25.8907 268.308 18.0528 271.397L17.2969 271.71L-6.19303 281.887C-12.1596 284.473 -16.8653 289.342 -19.2013 295.318L-19.4202 295.9L-33.1312 333.897C-35.041 339.19 -34.9606 344.901 -32.9178 349.966L-32.714 350.455L-19.688 380.615C-16.6242 387.709 -10.0234 392.603 -2.19906 393.584L19.0052 396.241C26.585 397.191 34.2901 394.339 39.5848 388.664L40.0897 388.106L62.6331 362.403C66.3876 358.122 68.4893 352.708 68.5567 347.175L68.5569 346.639L68.0946 306.866C68.0212 300.537 65.2865 294.642 60.5596 290.581L60.0952 290.194L40.9838 274.678Z" stroke="url(#paint66_linear_48_10)" stroke-width="4"/>
<path opacity="0.985507" d="M37.6712 277.635C31.6215 272.15 23.0239 270.37 15.1417 272.918L14.3809 273.178L-8.91985 281.593C-14.996 283.788 -19.9178 288.37 -22.5181 294.227L-22.7622 294.797L-37.6067 330.786C-39.761 336.009 -39.9229 341.788 -38.0732 347.031L-37.888 347.537L-26.445 377.638C-23.6831 384.904 -17.3436 390.194 -9.63154 391.67L10.9721 395.613C18.4432 397.042 26.2026 394.701 31.7146 389.391L32.2401 388.869L55.1829 365.347C59.1519 361.278 61.504 355.943 61.8041 350.355L61.8264 349.814L62.9798 311.205C63.17 304.835 60.676 298.739 56.1156 294.371L55.6679 293.953L37.6712 277.635Z" stroke="url(#paint67_linear_48_10)" stroke-width="4"/>
<path d="M34.1476 280.685C28.4018 274.886 20.0292 272.58 12.154 274.578L11.3931 274.785L-11.6795 281.487C-17.847 283.278 -22.975 287.563 -25.8376 293.292L-26.1075 293.85L-41.9106 327.724C-44.3144 332.877 -44.7218 338.731 -43.067 344.157L-42.901 344.68L-32.9907 374.598C-30.5355 382.01 -24.4878 387.67 -16.9298 389.629L3.1022 394.823C10.424 396.721 18.1941 394.896 23.8976 389.975L24.4433 389.489L47.6414 368.155C51.8263 364.307 54.4327 359.049 54.9693 353.402L55.0145 352.854L57.6609 315.569C58.1156 309.163 55.8714 302.868 51.4886 298.199L51.0576 297.753L34.1476 280.685Z" stroke="url(#paint68_linear_48_10)" stroke-width="4"/>
<path d="M31.1172 285.806C25.9144 279.371 17.8764 276.149 9.99041 277.286L9.22764 277.411L-14.1126 281.619C-20.3325 282.741 -25.7234 286.492 -28.9917 291.948L-29.3015 292.481L-47.4382 324.727C-50.2146 329.663 -51.0675 335.53 -49.8451 341.187L-49.7209 341.734L-42.2318 372.884C-40.378 380.594 -34.8663 386.934 -27.5889 389.725L-8.11922 397.192C-1.06908 399.896 6.70909 398.914 12.7015 394.601L13.2757 394.173L37.7743 375.292C42.2114 371.872 45.1962 366.851 46.1607 361.208L46.2482 360.659L51.6926 323.545C52.6321 317.14 50.8989 310.554 46.9322 305.378L46.5411 304.882L31.1172 285.806Z" stroke="url(#paint69_linear_48_10)" stroke-width="4"/>
<defs>
<linearGradient id="paint0_linear_48_10" x1="391.117" y1="468.093" x2="307.521" y2="139.16" gradientUnits="userSpaceOnUse">
<stop stop-color="#FF1CF7"/>
<stop offset="1" stop-color="#00F0FF"/>
</linearGradient>
<linearGradient id="paint1_linear_48_10" x1="378.312" y1="468.717" x2="314.592" y2="135.315" gradientUnits="userSpaceOnUse">
<stop stop-color="#FF1CF7"/>
<stop offset="1" stop-color="#00F0FF"/>
</linearGradient>
<linearGradient id="paint2_linear_48_10" x1="365.617" y1="468.863" x2="322.397" y2="132.461" gradientUnits="userSpaceOnUse">
<stop stop-color="#FF1CF7"/>
<stop offset="1" stop-color="#00F0FF"/>
</linearGradient>
<linearGradient id="paint3_linear_48_10" x1="353.05" y1="468.541" x2="330.802" y2="130.737" gradientUnits="userSpaceOnUse">
<stop stop-color="#FF1CF7"/>
<stop offset="1" stop-color="#00F0FF"/>
</linearGradient>
<linearGradient id="paint4_linear_48_10" x1="340.63" y1="467.762" x2="339.641" y2="130.261" gradientUnits="userSpaceOnUse">
<stop stop-color="#FF1CF7"/>
<stop offset="1" stop-color="#00F0FF"/>
</linearGradient>
<linearGradient id="paint5_linear_48_10" x1="328.376" y1="466.536" x2="348.726" y2="131.119" gradientUnits="userSpaceOnUse">
<stop stop-color="#FF1CF7"/>
<stop offset="1" stop-color="#00F0FF"/>
</linearGradient>
<linearGradient id="paint6_linear_48_10" x1="316.305" y1="464.877" x2="357.845" y2="133.366" gradientUnits="userSpaceOnUse">
<stop stop-color="#FF1CF7"/>
<stop offset="1" stop-color="#00F0FF"/>
</linearGradient>
<linearGradient id="paint7_linear_48_10" x1="304.437" y1="462.798" x2="366.78" y2="137.012" gradientUnits="userSpaceOnUse">
<stop stop-color="#FF1CF7"/>
<stop offset="1" stop-color="#00F0FF"/>
</linearGradient>
<linearGradient id="paint8_linear_48_10" x1="292.786" y1="460.314" x2="375.309" y2="142.025" gradientUnits="userSpaceOnUse">
<stop stop-color="#FF1CF7"/>
<stop offset="1" stop-color="#00F0FF"/>
</linearGradient>
<linearGradient id="paint9_linear_48_10" x1="281.366" y1="457.442" x2="383.216" y2="148.333" gradientUnits="userSpaceOnUse">
<stop stop-color="#FF1CF7"/>
<stop offset="1" stop-color="#00F0FF"/>
</linearGradient>
<linearGradient id="paint10_linear_48_10" x1="270.194" y1="454.199" x2="390.31" y2="155.821" gradientUnits="userSpaceOnUse">
<stop stop-color="#FF1CF7"/>
<stop offset="1" stop-color="#00F0FF"/>
</linearGradient>
<linearGradient id="paint11_linear_48_10" x1="259.286" y1="450.603" x2="396.428" y2="164.342" gradientUnits="userSpaceOnUse">
<stop stop-color="#FF1CF7"/>
<stop offset="1" stop-color="#00F0FF"/>
</linearGradient>
<linearGradient id="paint12_linear_48_10" x1="248.646" y1="446.672" x2="401.43" y2="173.724" gradientUnits="userSpaceOnUse">
<stop stop-color="#FF1CF7"/>
<stop offset="1" stop-color="#00F0FF"/>
</linearGradient>
<linearGradient id="paint13_linear_48_10" x1="238.29" y1="442.426" x2="405.224" y2="183.775" gradientUnits="userSpaceOnUse">
<stop stop-color="#FF1CF7"/>
<stop offset="1" stop-color="#00F0FF"/>
</linearGradient>
<linearGradient id="paint14_linear_48_10" x1="228.225" y1="437.886" x2="407.756" y2="194.298" gradientUnits="userSpaceOnUse">
<stop stop-color="#FF1CF7"/>
<stop offset="1" stop-color="#00F0FF"/>
</linearGradient>
<linearGradient id="paint15_linear_48_10" x1="218.464" y1="433.071" x2="409.012" y2="205.098" gradientUnits="userSpaceOnUse">
<stop stop-color="#FF1CF7"/>
<stop offset="1" stop-color="#00F0FF"/>
</linearGradient>
<linearGradient id="paint16_linear_48_10" x1="209.014" y1="428.004" x2="409.013" y2="215.989" gradientUnits="userSpaceOnUse">
<stop stop-color="#FF1CF7"/>
<stop offset="1" stop-color="#00F0FF"/>
</linearGradient>
<linearGradient id="paint17_linear_48_10" x1="199.879" y1="422.707" x2="407.806" y2="226.802" gradientUnits="userSpaceOnUse">
<stop stop-color="#FF1CF7"/>
<stop offset="1" stop-color="#00F0FF"/>
</linearGradient>
<linearGradient id="paint18_linear_48_10" x1="191.069" y1="417.201" x2="405.469" y2="237.386" gradientUnits="userSpaceOnUse">
<stop stop-color="#FF1CF7"/>
<stop offset="1" stop-color="#00F0FF"/>
</linearGradient>
<linearGradient id="paint19_linear_48_10" x1="182.583" y1="411.51" x2="402.092" y2="247.618" gradientUnits="userSpaceOnUse">
<stop stop-color="#FF1CF7"/>
<stop offset="1" stop-color="#00F0FF"/>
</linearGradient>
<linearGradient id="paint20_linear_48_10" x1="174.427" y1="405.658" x2="397.783" y2="257.397" gradientUnits="userSpaceOnUse">
<stop stop-color="#FF1CF7"/>
<stop offset="1" stop-color="#00F0FF"/>
</linearGradient>
<linearGradient id="paint21_linear_48_10" x1="166.604" y1="399.664" x2="392.657" y2="266.644" gradientUnits="userSpaceOnUse">
<stop stop-color="#FF1CF7"/>
<stop offset="1" stop-color="#00F0FF"/>
</linearGradient>
<linearGradient id="paint22_linear_48_10" x1="159.115" y1="393.554" x2="386.829" y2="275.311" gradientUnits="userSpaceOnUse">
<stop stop-color="#FF1CF7"/>
<stop offset="1" stop-color="#00F0FF"/>
</linearGradient>
<linearGradient id="paint23_linear_48_10" x1="151.958" y1="387.35" x2="380.41" y2="283.363" gradientUnits="userSpaceOnUse">
<stop stop-color="#FF1CF7"/>
<stop offset="1" stop-color="#00F0FF"/>
</linearGradient>
<linearGradient id="paint24_linear_48_10" x1="145.135" y1="381.074" x2="373.51" y2="290.787" gradientUnits="userSpaceOnUse">
<stop stop-color="#FF1CF7"/>
<stop offset="1" stop-color="#00F0FF"/>
</linearGradient>
<linearGradient id="paint25_linear_48_10" x1="138.639" y1="374.751" x2="366.228" y2="297.59" gradientUnits="userSpaceOnUse">
<stop stop-color="#FF1CF7"/>
<stop offset="1" stop-color="#00F0FF"/>
</linearGradient>
<linearGradient id="paint26_linear_48_10" x1="132.469" y1="368.401" x2="358.658" y2="303.784" gradientUnits="userSpaceOnUse">
<stop stop-color="#FF1CF7"/>
<stop offset="1" stop-color="#00F0FF"/>
</linearGradient>
<linearGradient id="paint27_linear_48_10" x1="126.624" y1="362.049" x2="350.884" y2="309.401" gradientUnits="userSpaceOnUse">
<stop stop-color="#FF1CF7"/>
<stop offset="1" stop-color="#00F0FF"/>
</linearGradient>
<linearGradient id="paint28_linear_48_10" x1="121.095" y1="355.714" x2="342.977" y2="314.472" gradientUnits="userSpaceOnUse">
<stop stop-color="#FF1CF7"/>
<stop offset="1" stop-color="#00F0FF"/>
</linearGradient>
<linearGradient id="paint29_linear_48_10" x1="115.876" y1="349.419" x2="334.998" y2="319.041" gradientUnits="userSpaceOnUse">
<stop stop-color="#FF1CF7"/>
<stop offset="1" stop-color="#00F0FF"/>
</linearGradient>
<linearGradient id="paint30_linear_48_10" x1="110.962" y1="343.185" x2="327.002" y2="323.154" gradientUnits="userSpaceOnUse">
<stop stop-color="#FF1CF7"/>
<stop offset="1" stop-color="#00F0FF"/>
</linearGradient>
<linearGradient id="paint31_linear_48_10" x1="106.339" y1="337.03" x2="319.027" y2="326.859" gradientUnits="userSpaceOnUse">
<stop stop-color="#FF1CF7"/>
<stop offset="1" stop-color="#00F0FF"/>
</linearGradient>
<linearGradient id="paint32_linear_48_10" x1="102.005" y1="330.979" x2="311.112" y2="330.209" gradientUnits="userSpaceOnUse">
<stop stop-color="#FF1CF7"/>
<stop offset="1" stop-color="#00F0FF"/>
</linearGradient>
<linearGradient id="paint33_linear_48_10" x1="97.9485" y1="325.045" x2="303.283" y2="333.252" gradientUnits="userSpaceOnUse">
<stop stop-color="#FF1CF7"/>
<stop offset="1" stop-color="#00F0FF"/>
</linearGradient>
<linearGradient id="paint34_linear_48_10" x1="94.1558" y1="319.248" x2="295.553" y2="336.038" gradientUnits="userSpaceOnUse">
<stop stop-color="#FF1CF7"/>
<stop offset="1" stop-color="#00F0FF"/>
</linearGradient>
<linearGradient id="paint35_linear_48_10" x1="90.6226" y1="313.608" x2="287.941" y2="338.619" gradientUnits="userSpaceOnUse">
<stop stop-color="#FF1CF7"/>
<stop offset="1" stop-color="#00F0FF"/>
</linearGradient>
<linearGradient id="paint36_linear_48_10" x1="87.3287" y1="308.139" x2="280.444" y2="341.04" gradientUnits="userSpaceOnUse">
<stop stop-color="#FF1CF7"/>
<stop offset="1" stop-color="#00F0FF"/>
</linearGradient>
<linearGradient id="paint37_linear_48_10" x1="84.2672" y1="302.857" x2="273.065" y2="343.346" gradientUnits="userSpaceOnUse">
<stop stop-color="#FF1CF7"/>
<stop offset="1" stop-color="#00F0FF"/>
</linearGradient>
<linearGradient id="paint38_linear_48_10" x1="81.4215" y1="297.777" x2="265.796" y2="345.58" gradientUnits="userSpaceOnUse">
<stop stop-color="#FF1CF7"/>
<stop offset="1" stop-color="#00F0FF"/>
</linearGradient>
<linearGradient id="paint39_linear_48_10" x1="78.7818" y1="292.913" x2="258.628" y2="347.781" gradientUnits="userSpaceOnUse">
<stop stop-color="#FF1CF7"/>
<stop offset="1" stop-color="#00F0FF"/>
</linearGradient>
<linearGradient id="paint40_linear_48_10" x1="76.3324" y1="288.277" x2="251.545" y2="349.984" gradientUnits="userSpaceOnUse">
<stop stop-color="#FF1CF7"/>
<stop offset="1" stop-color="#00F0FF"/>
</linearGradient>
<linearGradient id="paint41_linear_48_10" x1="74.0559" y1="283.881" x2="244.523" y2="352.223" gradientUnits="userSpaceOnUse">
<stop stop-color="#FF1CF7"/>
<stop offset="1" stop-color="#00F0FF"/>
</linearGradient>
<linearGradient id="paint42_linear_48_10" x1="71.9429" y1="279.736" x2="237.546" y2="354.525" gradientUnits="userSpaceOnUse">
<stop stop-color="#FF1CF7"/>
<stop offset="1" stop-color="#00F0FF"/>
</linearGradient>
<linearGradient id="paint43_linear_48_10" x1="69.9749" y1="275.851" x2="230.584" y2="356.914" gradientUnits="userSpaceOnUse">
<stop stop-color="#FF1CF7"/>
<stop offset="1" stop-color="#00F0FF"/>
</linearGradient>
<linearGradient id="paint44_linear_48_10" x1="68.1382" y1="272.234" x2="223.608" y2="359.412" gradientUnits="userSpaceOnUse">
<stop stop-color="#FF1CF7"/>
<stop offset="1" stop-color="#00F0FF"/>
</linearGradient>
<linearGradient id="paint45_linear_48_10" x1="66.4154" y1="268.893" x2="216.586" y2="362.033" gradientUnits="userSpaceOnUse">
<stop stop-color="#FF1CF7"/>
<stop offset="1" stop-color="#00F0FF"/>
</linearGradient>
<linearGradient id="paint46_linear_48_10" x1="64.792" y1="265.835" x2="209.485" y2="364.787" gradientUnits="userSpaceOnUse">
<stop stop-color="#FF1CF7"/>
<stop offset="1" stop-color="#00F0FF"/>
</linearGradient>
<linearGradient id="paint47_linear_48_10" x1="63.255" y1="263.063" x2="202.271" y2="367.679" gradientUnits="userSpaceOnUse">
<stop stop-color="#FF1CF7"/>
<stop offset="1" stop-color="#00F0FF"/>
</linearGradient>
<linearGradient id="paint48_linear_48_10" x1="61.7855" y1="260.582" x2="194.906" y2="370.708" gradientUnits="userSpaceOnUse">
<stop stop-color="#FF1CF7"/>
<stop offset="1" stop-color="#00F0FF"/>
</linearGradient>
<linearGradient id="paint49_linear_48_10" x1="60.3672" y1="258.397" x2="187.349" y2="373.868" gradientUnits="userSpaceOnUse">
<stop stop-color="#FF1CF7"/>
<stop offset="1" stop-color="#00F0FF"/>
</linearGradient>
<linearGradient id="paint50_linear_48_10" x1="58.9881" y1="256.505" x2="179.569" y2="377.142" gradientUnits="userSpaceOnUse">
<stop stop-color="#FF1CF7"/>
<stop offset="1" stop-color="#00F0FF"/>
</linearGradient>
<linearGradient id="paint51_linear_48_10" x1="57.6332" y1="254.91" x2="171.529" y2="380.513" gradientUnits="userSpaceOnUse">
<stop stop-color="#FF1CF7"/>
<stop offset="1" stop-color="#00F0FF"/>
</linearGradient>
<linearGradient id="paint52_linear_48_10" x1="56.2831" y1="253.61" x2="163.189" y2="383.95" gradientUnits="userSpaceOnUse">
<stop stop-color="#FF1CF7"/>
<stop offset="1" stop-color="#00F0FF"/>
</linearGradient>
<linearGradient id="paint53_linear_48_10" x1="54.9282" y1="252.604" x2="154.525" y2="387.419" gradientUnits="userSpaceOnUse">
<stop stop-color="#FF1CF7"/>
<stop offset="1" stop-color="#00F0FF"/>
</linearGradient>
<linearGradient id="paint54_linear_48_10" x1="53.552" y1="251.889" x2="145.506" y2="390.876" gradientUnits="userSpaceOnUse">
<stop stop-color="#FF1CF7"/>
<stop offset="1" stop-color="#00F0FF"/>
</linearGradient>
<linearGradient id="paint55_linear_48_10" x1="52.1394" y1="251.464" x2="136.112" y2="394.275" gradientUnits="userSpaceOnUse">
<stop stop-color="#FF1CF7"/>
<stop offset="1" stop-color="#00F0FF"/>
</linearGradient>
<linearGradient id="paint56_linear_48_10" x1="50.6788" y1="251.32" x2="126.331" y2="397.554" gradientUnits="userSpaceOnUse">
<stop stop-color="#FF1CF7"/>
<stop offset="1" stop-color="#00F0FF"/>
</linearGradient>
<linearGradient id="paint57_linear_48_10" x1="49.1546" y1="251.452" x2="116.156" y2="400.651" gradientUnits="userSpaceOnUse">
<stop stop-color="#FF1CF7"/>
<stop offset="1" stop-color="#00F0FF"/>
</linearGradient>
<linearGradient id="paint58_linear_48_10" x1="47.5525" y1="251.854" x2="105.593" y2="403.5" gradientUnits="userSpaceOnUse">
<stop stop-color="#FF1CF7"/>
<stop offset="1" stop-color="#00F0FF"/>
</linearGradient>
<linearGradient id="paint59_linear_48_10" x1="45.8669" y1="252.52" x2="94.6674" y2="406.034" gradientUnits="userSpaceOnUse">
<stop stop-color="#FF1CF7"/>
<stop offset="1" stop-color="#00F0FF"/>
</linearGradient>
<linearGradient id="paint60_linear_48_10" x1="44.0826" y1="253.441" x2="83.4089" y2="408.182" gradientUnits="userSpaceOnUse">
<stop stop-color="#FF1CF7"/>
<stop offset="1" stop-color="#00F0FF"/>
</linearGradient>
<linearGradient id="paint61_linear_48_10" x1="42.1879" y1="254.606" x2="71.8637" y2="409.877" gradientUnits="userSpaceOnUse">
<stop stop-color="#FF1CF7"/>
<stop offset="1" stop-color="#00F0FF"/>
</linearGradient>
<linearGradient id="paint62_linear_48_10" x1="40.176" y1="256.007" x2="60.0968" y2="411.06" gradientUnits="userSpaceOnUse">
<stop stop-color="#FF1CF7"/>
<stop offset="1" stop-color="#00F0FF"/>
</linearGradient>
<linearGradient id="paint63_linear_48_10" x1="38.0323" y1="257.634" x2="48.1781" y2="411.682" gradientUnits="userSpaceOnUse">
<stop stop-color="#FF1CF7"/>
<stop offset="1" stop-color="#00F0FF"/>
</linearGradient>
<linearGradient id="paint64_linear_48_10" x1="35.7532" y1="259.473" x2="36.199" y2="411.704" gradientUnits="userSpaceOnUse">
<stop stop-color="#FF1CF7"/>
<stop offset="1" stop-color="#00F0FF"/>
</linearGradient>
<linearGradient id="paint65_linear_48_10" x1="33.3273" y1="261.514" x2="24.2514" y2="411.104" gradientUnits="userSpaceOnUse">
<stop stop-color="#FF1CF7"/>
<stop offset="1" stop-color="#00F0FF"/>
</linearGradient>
<linearGradient id="paint66_linear_48_10" x1="30.7502" y1="263.744" x2="12.4385" y2="409.88" gradientUnits="userSpaceOnUse">
<stop stop-color="#FF1CF7"/>
<stop offset="1" stop-color="#00F0FF"/>
</linearGradient>
<linearGradient id="paint67_linear_48_10" x1="28.0115" y1="266.151" x2="0.857055" y2="408.05" gradientUnits="userSpaceOnUse">
<stop stop-color="#FF1CF7"/>
<stop offset="1" stop-color="#00F0FF"/>
</linearGradient>
<linearGradient id="paint68_linear_48_10" x1="25.1081" y1="268.719" x2="-10.3933" y2="405.647" gradientUnits="userSpaceOnUse">
<stop stop-color="#FF1CF7"/>
<stop offset="1" stop-color="#00F0FF"/>
</linearGradient>
<linearGradient id="paint69_linear_48_10" x1="23.1558" y1="272.833" x2="-27.3898" y2="404.62" gradientUnits="userSpaceOnUse">
<stop stop-color="#FF1CF7"/>
<stop offset="1" stop-color="#00F0FF"/>
</linearGradient>
</defs>
</svg>
